<svg width="648" height="178" viewBox="0 0 648 178" fill="none" xmlns="http://www.w3.org/2000/svg">
<path d="M101.172 2.46094H153.172L154.672 10.4609H162.172V65.4609H101.172V2.46094Z" fill="white"/>
<path d="M179.172 10.4609V4.46094H226.172V10.4609H233.172V58.4609H226.172V63.9609H180.672V56.4609H172.672V10.4609H179.172Z" fill="white"/>
<path d="M249.672 10.4609V4.46094H295.172V10.4609H304.672V63.4609H250.172L249.672 56.4609H243.172V10.4609H249.672Z" fill="white"/>
<path d="M319.172 7.46094L324.172 2.96094H364.672L374.172 14.9609V57.4609L364.672 63.4609H322.672L313.172 57.4609V12.9609L319.172 7.46094Z" fill="white"/>
<path d="M390.172 7.46094L395.172 2.96094H435.672L445.172 14.9609V57.4609L435.672 63.4609H393.672L384.172 57.4609V12.9609L390.172 7.46094Z" fill="white"/>
<path d="M454.172 2.96094H475.172V65.4609H454.172V2.96094Z" fill="white"/>
<path d="M491.172 7.46092L496.172 2.96092H536.672L546.172 14.9609V63.4609H485.172V12.9609L491.172 7.46092Z" fill="white"/>
<path d="M554.672 4.46094H577.672V49.4609H607.672V64.4609H554.672V4.46094Z" fill="white"/>
<path d="M31.1719 3.96094L78.6719 2.96094L92.6719 11.9609V50.4609H54.1719V63.4609H31.1719V3.96094Z" fill="white"/>
<path d="M5.67188 103.961H57.6719V118.961H43.6719V164.461H19.6719V118.961H5.67188V103.961Z" fill="white"/>
<path d="M66.1719 104.961H127.172V165.461H66.1719V104.961Z" fill="white"/>
<path d="M144.172 108.461L149.172 103.961H189.672L199.172 115.961V158.461L189.672 164.461H147.672L138.172 158.461V113.961L144.172 108.461Z" fill="white"/>
<path d="M209.172 103.961H231.172V109.461H246.172V103.961H270.172V165.461H209.172V103.961Z" fill="white"/>
<path d="M307.172 107.461L312.172 102.961H352.672L362.172 114.961V157.461L352.672 163.461H310.672L301.172 157.461V112.961L307.172 107.461Z" fill="white"/>
<path d="M377.172 107.461L382.172 102.961H422.672L432.172 114.961V157.461L422.672 163.461H380.672L371.172 157.461V112.961L377.172 107.461Z" fill="white"/>
<path d="M440.672 104.461H463.172V149.461H494.672V164.961H440.672V104.461Z" fill="white"/>
<path d="M509.172 108.461L514.172 103.961H554.672L564.172 115.961V164.461H503.172V113.961L509.172 108.461Z" fill="white"/>
<path d="M573.172 103.961H624.672L634.172 115.961V158.461L624.672 164.461H573.172V103.961Z" fill="white"/>
<path d="M97.2812 54.6875V46.875H104.977V54.6875H97.2812ZM97.2812 46.875V39.0234H104.977V46.875H97.2812ZM97.2812 39.0234V31.2109H104.977V39.0234H97.2812ZM97.2812 31.2109V23.3594H104.977V31.2109H97.2812ZM97.2812 23.3594V15.5078H104.977V23.3594H97.2812ZM89.4688 62.5391V54.6875H97.2812V62.5391H89.4688ZM89.4688 54.6875V46.875H97.2812V54.6875H89.4688ZM89.4688 46.875V39.0234H97.2812V46.875H89.4688ZM89.4688 39.0234V31.2109H97.2812V39.0234H89.4688ZM89.4688 31.2109V23.3594H97.2812V31.2109H89.4688ZM89.4688 23.3594V15.5078H97.2812V23.3594H89.4688ZM89.4688 15.5078V7.85156H97.2812V15.5078H89.4688ZM81.6172 7.85156V0H89.4688V7.85156H81.6172ZM81.6172 62.5391V54.6875H89.4688V62.5391H81.6172ZM81.6172 54.6875V46.875H89.4688V54.6875H81.6172ZM81.6172 46.875V39.0234H89.4688V46.875H81.6172ZM81.6172 15.5078V7.85156H89.4688V15.5078H81.6172ZM73.8047 7.85156V0H81.6172V7.85156H73.8047ZM73.8047 62.5391V54.6875H81.6172V62.5391H73.8047ZM73.8047 54.6875V46.875H81.6172V54.6875H73.8047ZM65.9531 7.85156V0H73.8047V7.85156H65.9531ZM65.9531 62.5391V54.6875H73.8047V62.5391H65.9531ZM65.9531 54.6875V46.875H73.8047V54.6875H65.9531ZM65.9531 39.0234V31.2109H73.8047V39.0234H65.9531ZM65.9531 31.2109V23.3594H73.8047V31.2109H65.9531ZM65.9531 23.3594V15.5078H73.8047V23.3594H65.9531ZM58.1016 7.85156V0H65.9531V7.85156H58.1016ZM65.9531 70.1953V77.9297H58.1016V70.1953H65.9531ZM58.1016 70.1953V62.5391H65.9531V70.1953H58.1016ZM58.1016 62.5391V54.6875H65.9531V62.5391H58.1016ZM58.1016 54.6875V46.875H65.9531V54.6875H58.1016ZM58.1016 39.0234V31.2109H65.9531V39.0234H58.1016ZM58.1016 31.2109V23.3594H65.9531V31.2109H58.1016ZM58.1016 23.3594V15.5078H65.9531V23.3594H58.1016ZM50.4453 7.85156V0H58.1016V7.85156H50.4453ZM58.1016 70.1953V77.9297H50.4453V70.1953H58.1016ZM50.4453 70.1953V62.5391H58.1016V70.1953H50.4453ZM50.4453 62.5391V54.6875H58.1016V62.5391H50.4453ZM50.4453 54.6875V46.875H58.1016V54.6875H50.4453ZM50.4453 39.0234V31.2109H58.1016V39.0234H50.4453ZM50.4453 31.2109V23.3594H58.1016V31.2109H50.4453ZM50.4453 23.3594V15.5078H58.1016V23.3594H50.4453ZM42.5938 7.85156V0H50.4453V7.85156H42.5938ZM50.4453 70.1953V77.9297H42.5938V70.1953H50.4453ZM42.5938 70.1953V62.5391H50.4453V70.1953H42.5938ZM34.7812 7.85156V0H42.5938V7.85156H34.7812ZM42.5938 70.1953V77.9297H34.7812V70.1953H42.5938ZM34.7812 70.1953V62.5391H42.5938V70.1953H34.7812ZM26.9297 7.85156V0H34.7812V7.85156H26.9297ZM26.9297 70.1953V62.5391H34.7812V70.1953H26.9297ZM26.9297 62.5391V54.6875H34.7812V62.5391H26.9297ZM26.9297 54.6875V46.875H34.7812V54.6875H26.9297ZM26.9297 46.875V39.0234H34.7812V46.875H26.9297ZM26.9297 39.0234V31.2109H34.7812V39.0234H26.9297ZM26.9297 31.2109V23.3594H34.7812V31.2109H26.9297ZM26.9297 23.3594V15.5078H34.7812V23.3594H26.9297ZM26.9297 15.5078V7.85156H34.7812V15.5078H26.9297Z" fill="#352B52"/>
<path d="M175.367 70.1953V77.9297H167.672V70.1953H175.367ZM167.672 70.1953V62.5391H175.367V70.1953H167.672ZM167.672 62.5391V54.6875H175.367V62.5391H167.672ZM167.672 54.6875V46.875H175.367V54.6875H167.672ZM167.672 46.875V39.0234H175.367V46.875H167.672ZM167.672 39.0234V31.2109H175.367V39.0234H167.672ZM167.672 31.2109V23.3594H175.367V31.2109H167.672ZM167.672 23.3594V15.5078H175.367V23.3594H167.672ZM167.672 70.1953V77.9297H159.859V70.1953H167.672ZM159.859 70.1953V62.5391H167.672V70.1953H159.859ZM159.859 62.5391V54.6875H167.672V62.5391H159.859ZM159.859 54.6875V46.875H167.672V54.6875H159.859ZM159.859 46.875V39.0234H167.672V46.875H159.859ZM159.859 39.0234V31.2109H167.672V39.0234H159.859ZM159.859 31.2109V23.3594H167.672V31.2109H159.859ZM159.859 23.3594V15.5078H167.672V23.3594H159.859ZM159.859 15.5078V7.85156H167.672V15.5078H159.859ZM152.008 7.85156V0H159.859V7.85156H152.008ZM159.859 70.1953V77.9297H152.008V70.1953H159.859ZM152.008 70.1953V62.5391H159.859V70.1953H152.008ZM152.008 39.0234V31.2109H159.859V39.0234H152.008ZM152.008 15.5078V7.85156H159.859V15.5078H152.008ZM144.195 7.85156V0H152.008V7.85156H144.195ZM152.008 70.1953V77.9297H144.195V70.1953H152.008ZM144.195 70.1953V62.5391H152.008V70.1953H144.195ZM136.344 7.85156V0H144.195V7.85156H136.344ZM136.344 70.1953V62.5391H144.195V70.1953H136.344ZM136.344 62.5391V54.6875H144.195V62.5391H136.344ZM136.344 54.6875V46.875H144.195V54.6875H136.344ZM136.344 46.875V39.0234H144.195V46.875H136.344ZM136.344 31.2109V23.3594H144.195V31.2109H136.344ZM136.344 23.3594V15.5078H144.195V23.3594H136.344ZM128.492 7.85156V0H136.344V7.85156H128.492ZM136.344 70.1953V77.9297H128.492V70.1953H136.344ZM128.492 70.1953V62.5391H136.344V70.1953H128.492ZM128.492 62.5391V54.6875H136.344V62.5391H128.492ZM128.492 54.6875V46.875H136.344V54.6875H128.492ZM128.492 46.875V39.0234H136.344V46.875H128.492ZM128.492 31.2109V23.3594H136.344V31.2109H128.492ZM128.492 23.3594V15.5078H136.344V23.3594H128.492ZM120.836 7.85156V0H128.492V7.85156H120.836ZM128.492 70.1953V77.9297H120.836V70.1953H128.492ZM120.836 70.1953V62.5391H128.492V70.1953H120.836ZM120.836 62.5391V54.6875H128.492V62.5391H120.836ZM120.836 54.6875V46.875H128.492V54.6875H120.836ZM120.836 46.875V39.0234H128.492V46.875H120.836ZM120.836 31.2109V23.3594H128.492V31.2109H120.836ZM120.836 23.3594V15.5078H128.492V23.3594H120.836ZM112.984 7.85156V0H120.836V7.85156H112.984ZM120.836 70.1953V77.9297H112.984V70.1953H120.836ZM112.984 70.1953V62.5391H120.836V70.1953H112.984ZM105.172 7.85156V0H112.984V7.85156H105.172ZM112.984 70.1953V77.9297H105.172V70.1953H112.984ZM105.172 70.1953V62.5391H112.984V70.1953H105.172ZM97.3203 7.85156V0H105.172V7.85156H97.3203ZM97.3203 70.1953V62.5391H105.172V70.1953H97.3203ZM97.3203 62.5391V54.6875H105.172V62.5391H97.3203ZM97.3203 54.6875V46.875H105.172V54.6875H97.3203ZM97.3203 46.875V39.0234H105.172V46.875H97.3203ZM97.3203 39.0234V31.2109H105.172V39.0234H97.3203ZM97.3203 31.2109V23.3594H105.172V31.2109H97.3203ZM97.3203 23.3594V15.5078H105.172V23.3594H97.3203ZM97.3203 15.5078V7.85156H105.172V15.5078H97.3203Z" fill="#352B52"/>
<path d="M238.062 70.1953V62.5391H245.758V70.1953H238.062ZM238.062 62.5391V54.6875H245.758V62.5391H238.062ZM238.062 54.6875V46.875H245.758V54.6875H238.062ZM238.062 46.875V39.0234H245.758V46.875H238.062ZM238.062 39.0234V31.2109H245.758V39.0234H238.062ZM238.062 31.2109V23.3594H245.758V31.2109H238.062ZM238.062 23.3594V15.5078H245.758V23.3594H238.062ZM238.062 70.1953V77.9297H230.25V70.1953H238.062ZM230.25 70.1953V62.5391H238.062V70.1953H230.25ZM230.25 62.5391V54.6875H238.062V62.5391H230.25ZM230.25 54.6875V46.875H238.062V54.6875H230.25ZM230.25 46.875V39.0234H238.062V46.875H230.25ZM230.25 39.0234V31.2109H238.062V39.0234H230.25ZM230.25 31.2109V23.3594H238.062V31.2109H230.25ZM230.25 23.3594V15.5078H238.062V23.3594H230.25ZM230.25 15.5078V7.85156H238.062V15.5078H230.25ZM222.398 7.85156V0H230.25V7.85156H222.398ZM230.25 70.1953V77.9297H222.398V70.1953H230.25ZM222.398 70.1953V62.5391H230.25V70.1953H222.398ZM222.398 62.5391V54.6875H230.25V62.5391H222.398ZM222.398 15.5078V7.85156H230.25V15.5078H222.398ZM214.586 7.85156V0H222.398V7.85156H214.586ZM222.398 70.1953V77.9297H214.586V70.1953H222.398ZM214.586 70.1953V62.5391H222.398V70.1953H214.586ZM206.734 7.85156V0H214.586V7.85156H206.734ZM214.586 70.1953V77.9297H206.734V70.1953H214.586ZM206.734 70.1953V62.5391H214.586V70.1953H206.734ZM206.734 54.6875V46.875H214.586V54.6875H206.734ZM206.734 46.875V39.0234H214.586V46.875H206.734ZM206.734 39.0234V31.2109H214.586V39.0234H206.734ZM206.734 31.2109V23.3594H214.586V31.2109H206.734ZM206.734 23.3594V15.5078H214.586V23.3594H206.734ZM198.883 7.85156V0H206.734V7.85156H198.883ZM206.734 70.1953V77.9297H198.883V70.1953H206.734ZM198.883 70.1953V62.5391H206.734V70.1953H198.883ZM198.883 54.6875V46.875H206.734V54.6875H198.883ZM198.883 46.875V39.0234H206.734V46.875H198.883ZM198.883 39.0234V31.2109H206.734V39.0234H198.883ZM198.883 31.2109V23.3594H206.734V31.2109H198.883ZM198.883 23.3594V15.5078H206.734V23.3594H198.883ZM191.227 7.85156V0H198.883V7.85156H191.227ZM198.883 70.1953V77.9297H191.227V70.1953H198.883ZM191.227 70.1953V62.5391H198.883V70.1953H191.227ZM191.227 54.6875V46.875H198.883V54.6875H191.227ZM191.227 46.875V39.0234H198.883V46.875H191.227ZM191.227 39.0234V31.2109H198.883V39.0234H191.227ZM191.227 31.2109V23.3594H198.883V31.2109H191.227ZM191.227 23.3594V15.5078H198.883V23.3594H191.227ZM183.375 7.85156V0H191.227V7.85156H183.375ZM191.227 70.1953V77.9297H183.375V70.1953H191.227ZM183.375 70.1953V62.5391H191.227V70.1953H183.375ZM175.562 7.85156V0H183.375V7.85156H175.562ZM175.562 70.1953V62.5391H183.375V70.1953H175.562ZM175.562 62.5391V54.6875H183.375V62.5391H175.562ZM175.562 15.5078V7.85156H183.375V15.5078H175.562ZM167.711 62.5391V54.6875H175.562V62.5391H167.711ZM167.711 54.6875V46.875H175.562V54.6875H167.711ZM167.711 46.875V39.0234H175.562V46.875H167.711ZM167.711 39.0234V31.2109H175.562V39.0234H167.711ZM167.711 31.2109V23.3594H175.562V31.2109H167.711ZM167.711 23.3594V15.5078H175.562V23.3594H167.711ZM167.711 15.5078V7.85156H175.562V15.5078H167.711Z" fill="#352B52"/>
<path d="M308.453 70.1953V62.5391H316.148V70.1953H308.453ZM308.453 62.5391V54.6875H316.148V62.5391H308.453ZM308.453 54.6875V46.875H316.148V54.6875H308.453ZM308.453 46.875V39.0234H316.148V46.875H308.453ZM308.453 39.0234V31.2109H316.148V39.0234H308.453ZM308.453 31.2109V23.3594H316.148V31.2109H308.453ZM308.453 23.3594V15.5078H316.148V23.3594H308.453ZM308.453 70.1953V77.9297H300.641V70.1953H308.453ZM300.641 70.1953V62.5391H308.453V70.1953H300.641ZM300.641 62.5391V54.6875H308.453V62.5391H300.641ZM300.641 54.6875V46.875H308.453V54.6875H300.641ZM300.641 46.875V39.0234H308.453V46.875H300.641ZM300.641 39.0234V31.2109H308.453V39.0234H300.641ZM300.641 31.2109V23.3594H308.453V31.2109H300.641ZM300.641 23.3594V15.5078H308.453V23.3594H300.641ZM300.641 15.5078V7.85156H308.453V15.5078H300.641ZM292.789 7.85156V0H300.641V7.85156H292.789ZM300.641 70.1953V77.9297H292.789V70.1953H300.641ZM292.789 70.1953V62.5391H300.641V70.1953H292.789ZM292.789 62.5391V54.6875H300.641V62.5391H292.789ZM292.789 39.0234V31.2109H300.641V39.0234H292.789ZM292.789 31.2109V23.3594H300.641V31.2109H292.789ZM292.789 15.5078V7.85156H300.641V15.5078H292.789ZM284.977 7.85156V0H292.789V7.85156H284.977ZM292.789 70.1953V77.9297H284.977V70.1953H292.789ZM284.977 70.1953V62.5391H292.789V70.1953H284.977ZM284.977 31.2109V23.3594H292.789V31.2109H284.977ZM277.125 7.85156V0H284.977V7.85156H277.125ZM284.977 70.1953V77.9297H277.125V70.1953H284.977ZM277.125 70.1953V62.5391H284.977V70.1953H277.125ZM277.125 54.6875V46.875H284.977V54.6875H277.125ZM277.125 46.875V39.0234H284.977V46.875H277.125ZM277.125 31.2109V23.3594H284.977V31.2109H277.125ZM277.125 23.3594V15.5078H284.977V23.3594H277.125ZM269.273 7.85156V0H277.125V7.85156H269.273ZM277.125 70.1953V77.9297H269.273V70.1953H277.125ZM269.273 70.1953V62.5391H277.125V70.1953H269.273ZM269.273 54.6875V46.875H277.125V54.6875H269.273ZM269.273 46.875V39.0234H277.125V46.875H269.273ZM269.273 31.2109V23.3594H277.125V31.2109H269.273ZM269.273 23.3594V15.5078H277.125V23.3594H269.273ZM261.617 7.85156V0H269.273V7.85156H261.617ZM269.273 70.1953V77.9297H261.617V70.1953H269.273ZM261.617 70.1953V62.5391H269.273V70.1953H261.617ZM261.617 54.6875V46.875H269.273V54.6875H261.617ZM261.617 46.875V39.0234H269.273V46.875H261.617ZM261.617 31.2109V23.3594H269.273V31.2109H261.617ZM261.617 23.3594V15.5078H269.273V23.3594H261.617ZM253.766 7.85156V0H261.617V7.85156H253.766ZM261.617 70.1953V77.9297H253.766V70.1953H261.617ZM253.766 70.1953V62.5391H261.617V70.1953H253.766ZM253.766 46.875V39.0234H261.617V46.875H253.766ZM245.953 7.85156V0H253.766V7.85156H245.953ZM245.953 70.1953V62.5391H253.766V70.1953H245.953ZM245.953 62.5391V54.6875H253.766V62.5391H245.953ZM245.953 46.875V39.0234H253.766V46.875H245.953ZM245.953 39.0234V31.2109H253.766V39.0234H245.953ZM245.953 15.5078V7.85156H253.766V15.5078H245.953ZM238.102 62.5391V54.6875H245.953V62.5391H238.102ZM238.102 54.6875V46.875H245.953V54.6875H238.102ZM238.102 46.875V39.0234H245.953V46.875H238.102ZM238.102 39.0234V31.2109H245.953V39.0234H238.102ZM238.102 31.2109V23.3594H245.953V31.2109H238.102ZM238.102 23.3594V15.5078H245.953V23.3594H238.102ZM238.102 15.5078V7.85156H245.953V15.5078H238.102Z" fill="#352B52"/>
<path d="M378.844 70.1953V62.5391H386.539V70.1953H378.844ZM378.844 62.5391V54.6875H386.539V62.5391H378.844ZM378.844 54.6875V46.875H386.539V54.6875H378.844ZM378.844 46.875V39.0234H386.539V46.875H378.844ZM378.844 39.0234V31.2109H386.539V39.0234H378.844ZM378.844 31.2109V23.3594H386.539V31.2109H378.844ZM378.844 23.3594V15.5078H386.539V23.3594H378.844ZM378.844 70.1953V77.9297H371.031V70.1953H378.844ZM371.031 70.1953V62.5391H378.844V70.1953H371.031ZM371.031 62.5391V54.6875H378.844V62.5391H371.031ZM371.031 54.6875V46.875H378.844V54.6875H371.031ZM371.031 46.875V39.0234H378.844V46.875H371.031ZM371.031 39.0234V31.2109H378.844V39.0234H371.031ZM371.031 31.2109V23.3594H378.844V31.2109H371.031ZM371.031 23.3594V15.5078H378.844V23.3594H371.031ZM371.031 15.5078V7.85156H378.844V15.5078H371.031ZM363.18 7.85156V0H371.031V7.85156H363.18ZM371.031 70.1953V77.9297H363.18V70.1953H371.031ZM363.18 70.1953V62.5391H371.031V70.1953H363.18ZM363.18 62.5391V54.6875H371.031V62.5391H363.18ZM363.18 15.5078V7.85156H371.031V15.5078H363.18ZM355.367 7.85156V0H363.18V7.85156H355.367ZM363.18 70.1953V77.9297H355.367V70.1953H363.18ZM355.367 70.1953V62.5391H363.18V70.1953H355.367ZM347.516 7.85156V0H355.367V7.85156H347.516ZM355.367 70.1953V77.9297H347.516V70.1953H355.367ZM347.516 70.1953V62.5391H355.367V70.1953H347.516ZM347.516 54.6875V46.875H355.367V54.6875H347.516ZM347.516 46.875V39.0234H355.367V46.875H347.516ZM347.516 39.0234V31.2109H355.367V39.0234H347.516ZM347.516 31.2109V23.3594H355.367V31.2109H347.516ZM347.516 23.3594V15.5078H355.367V23.3594H347.516ZM339.664 7.85156V0H347.516V7.85156H339.664ZM347.516 70.1953V77.9297H339.664V70.1953H347.516ZM339.664 70.1953V62.5391H347.516V70.1953H339.664ZM339.664 54.6875V46.875H347.516V54.6875H339.664ZM339.664 46.875V39.0234H347.516V46.875H339.664ZM339.664 39.0234V31.2109H347.516V39.0234H339.664ZM339.664 31.2109V23.3594H347.516V31.2109H339.664ZM339.664 23.3594V15.5078H347.516V23.3594H339.664ZM332.008 7.85156V0H339.664V7.85156H332.008ZM339.664 70.1953V77.9297H332.008V70.1953H339.664ZM332.008 70.1953V62.5391H339.664V70.1953H332.008ZM332.008 54.6875V46.875H339.664V54.6875H332.008ZM332.008 46.875V39.0234H339.664V46.875H332.008ZM332.008 39.0234V31.2109H339.664V39.0234H332.008ZM332.008 31.2109V23.3594H339.664V31.2109H332.008ZM332.008 23.3594V15.5078H339.664V23.3594H332.008ZM324.156 7.85156V0H332.008V7.85156H324.156ZM332.008 70.1953V77.9297H324.156V70.1953H332.008ZM324.156 70.1953V62.5391H332.008V70.1953H324.156ZM316.344 7.85156V0H324.156V7.85156H316.344ZM316.344 70.1953V62.5391H324.156V70.1953H316.344ZM316.344 62.5391V54.6875H324.156V62.5391H316.344ZM316.344 15.5078V7.85156H324.156V15.5078H316.344ZM308.492 62.5391V54.6875H316.344V62.5391H308.492ZM308.492 54.6875V46.875H316.344V54.6875H308.492ZM308.492 46.875V39.0234H316.344V46.875H308.492ZM308.492 39.0234V31.2109H316.344V39.0234H308.492ZM308.492 31.2109V23.3594H316.344V31.2109H308.492ZM308.492 23.3594V15.5078H316.344V23.3594H308.492ZM308.492 15.5078V7.85156H316.344V15.5078H308.492Z" fill="#352B52"/>
<path d="M449.234 70.1953V62.5391H456.93V70.1953H449.234ZM449.234 62.5391V54.6875H456.93V62.5391H449.234ZM449.234 54.6875V46.875H456.93V54.6875H449.234ZM449.234 39.0234V31.2109H456.93V39.0234H449.234ZM449.234 31.2109V23.3594H456.93V31.2109H449.234ZM449.234 23.3594V15.5078H456.93V23.3594H449.234ZM449.234 70.1953V77.9297H441.422V70.1953H449.234ZM441.422 70.1953V62.5391H449.234V70.1953H441.422ZM441.422 62.5391V54.6875H449.234V62.5391H441.422ZM441.422 54.6875V46.875H449.234V54.6875H441.422ZM441.422 46.875V39.0234H449.234V46.875H441.422ZM441.422 39.0234V31.2109H449.234V39.0234H441.422ZM441.422 31.2109V23.3594H449.234V31.2109H441.422ZM441.422 23.3594V15.5078H449.234V23.3594H441.422ZM441.422 15.5078V7.85156H449.234V15.5078H441.422ZM433.57 7.85156V0H441.422V7.85156H433.57ZM441.422 70.1953V77.9297H433.57V70.1953H441.422ZM433.57 70.1953V62.5391H441.422V70.1953H433.57ZM433.57 62.5391V54.6875H441.422V62.5391H433.57ZM433.57 46.875V39.0234H441.422V46.875H433.57ZM433.57 39.0234V31.2109H441.422V39.0234H433.57ZM433.57 31.2109V23.3594H441.422V31.2109H433.57ZM433.57 15.5078V7.85156H441.422V15.5078H433.57ZM425.758 7.85156V0H433.57V7.85156H425.758ZM433.57 70.1953V77.9297H425.758V70.1953H433.57ZM425.758 70.1953V62.5391H433.57V70.1953H425.758ZM425.758 46.875V39.0234H433.57V46.875H425.758ZM425.758 39.0234V31.2109H433.57V39.0234H425.758ZM425.758 31.2109V23.3594H433.57V31.2109H425.758ZM417.906 7.85156V0H425.758V7.85156H417.906ZM425.758 70.1953V77.9297H417.906V70.1953H425.758ZM417.906 70.1953V62.5391H425.758V70.1953H417.906ZM417.906 54.6875V46.875H425.758V54.6875H417.906ZM417.906 46.875V39.0234H425.758V46.875H417.906ZM417.906 39.0234V31.2109H425.758V39.0234H417.906ZM417.906 31.2109V23.3594H425.758V31.2109H417.906ZM417.906 23.3594V15.5078H425.758V23.3594H417.906ZM410.055 7.85156V0H417.906V7.85156H410.055ZM417.906 70.1953V77.9297H410.055V70.1953H417.906ZM410.055 70.1953V62.5391H417.906V70.1953H410.055ZM410.055 54.6875V46.875H417.906V54.6875H410.055ZM410.055 46.875V39.0234H417.906V46.875H410.055ZM410.055 39.0234V31.2109H417.906V39.0234H410.055ZM410.055 31.2109V23.3594H417.906V31.2109H410.055ZM410.055 23.3594V15.5078H417.906V23.3594H410.055ZM402.398 7.85156V0H410.055V7.85156H402.398ZM410.055 70.1953V77.9297H402.398V70.1953H410.055ZM402.398 70.1953V62.5391H410.055V70.1953H402.398ZM402.398 54.6875V46.875H410.055V54.6875H402.398ZM402.398 46.875V39.0234H410.055V46.875H402.398ZM402.398 39.0234V31.2109H410.055V39.0234H402.398ZM402.398 31.2109V23.3594H410.055V31.2109H402.398ZM402.398 23.3594V15.5078H410.055V23.3594H402.398ZM394.547 7.85156V0H402.398V7.85156H394.547ZM402.398 70.1953V77.9297H394.547V70.1953H402.398ZM394.547 70.1953V62.5391H402.398V70.1953H394.547ZM386.734 7.85156V0H394.547V7.85156H386.734ZM386.734 70.1953V62.5391H394.547V70.1953H386.734ZM386.734 62.5391V54.6875H394.547V62.5391H386.734ZM386.734 15.5078V7.85156H394.547V15.5078H386.734ZM378.883 62.5391V54.6875H386.734V62.5391H378.883ZM378.883 54.6875V46.875H386.734V54.6875H378.883ZM378.883 46.875V39.0234H386.734V46.875H378.883ZM378.883 39.0234V31.2109H386.734V39.0234H378.883ZM378.883 31.2109V23.3594H386.734V31.2109H378.883ZM378.883 23.3594V15.5078H386.734V23.3594H378.883ZM378.883 15.5078V7.85156H386.734V15.5078H378.883Z" fill="#352B52"/>
<path d="M488.297 70.1953V77.9297H480.445V70.1953H488.297ZM480.445 70.1953V62.5391H488.297V70.1953H480.445ZM480.445 62.5391V54.6875H488.297V62.5391H480.445ZM480.445 54.6875V46.875H488.297V54.6875H480.445ZM480.445 46.875V39.0234H488.297V46.875H480.445ZM480.445 39.0234V31.2109H488.297V39.0234H480.445ZM480.445 31.2109V23.3594H488.297V31.2109H480.445ZM480.445 23.3594V15.5078H488.297V23.3594H480.445ZM480.445 15.5078V7.85156H488.297V15.5078H480.445ZM472.789 7.85156V0H480.445V7.85156H472.789ZM480.445 70.1953V77.9297H472.789V70.1953H480.445ZM472.789 70.1953V62.5391H480.445V70.1953H472.789ZM472.789 62.5391V54.6875H480.445V62.5391H472.789ZM472.789 54.6875V46.875H480.445V54.6875H472.789ZM472.789 46.875V39.0234H480.445V46.875H472.789ZM472.789 39.0234V31.2109H480.445V39.0234H472.789ZM472.789 31.2109V23.3594H480.445V31.2109H472.789ZM472.789 23.3594V15.5078H480.445V23.3594H472.789ZM472.789 15.5078V7.85156H480.445V15.5078H472.789ZM464.938 7.85156V0H472.789V7.85156H464.938ZM472.789 70.1953V77.9297H464.938V70.1953H472.789ZM464.938 70.1953V62.5391H472.789V70.1953H464.938ZM457.125 7.85156V0H464.938V7.85156H457.125ZM464.938 70.1953V77.9297H457.125V70.1953H464.938ZM457.125 70.1953V62.5391H464.938V70.1953H457.125ZM449.273 7.85156V0H457.125V7.85156H449.273ZM449.273 70.1953V62.5391H457.125V70.1953H449.273ZM449.273 62.5391V54.6875H457.125V62.5391H449.273ZM449.273 54.6875V46.875H457.125V54.6875H449.273ZM449.273 46.875V39.0234H457.125V46.875H449.273ZM449.273 39.0234V31.2109H457.125V39.0234H449.273ZM449.273 31.2109V23.3594H457.125V31.2109H449.273ZM449.273 23.3594V15.5078H457.125V23.3594H449.273ZM449.273 15.5078V7.85156H457.125V15.5078H449.273Z" fill="#352B52"/>
<path d="M558.492 70.1953V77.9297H550.797V70.1953H558.492ZM550.797 70.1953V62.5391H558.492V70.1953H550.797ZM550.797 62.5391V54.6875H558.492V62.5391H550.797ZM550.797 54.6875V46.875H558.492V54.6875H550.797ZM550.797 46.875V39.0234H558.492V46.875H550.797ZM550.797 39.0234V31.2109H558.492V39.0234H550.797ZM550.797 31.2109V23.3594H558.492V31.2109H550.797ZM550.797 23.3594V15.5078H558.492V23.3594H550.797ZM550.797 70.1953V77.9297H542.984V70.1953H550.797ZM542.984 70.1953V62.5391H550.797V70.1953H542.984ZM542.984 62.5391V54.6875H550.797V62.5391H542.984ZM542.984 54.6875V46.875H550.797V54.6875H542.984ZM542.984 46.875V39.0234H550.797V46.875H542.984ZM542.984 39.0234V31.2109H550.797V39.0234H542.984ZM542.984 31.2109V23.3594H550.797V31.2109H542.984ZM542.984 23.3594V15.5078H550.797V23.3594H542.984ZM542.984 15.5078V7.85156H550.797V15.5078H542.984ZM535.133 7.85156V0H542.984V7.85156H535.133ZM542.984 70.1953V77.9297H535.133V70.1953H542.984ZM535.133 70.1953V62.5391H542.984V70.1953H535.133ZM535.133 15.5078V7.85156H542.984V15.5078H535.133ZM527.32 7.85156V0H535.133V7.85156H527.32ZM535.133 70.1953V77.9297H527.32V70.1953H535.133ZM527.32 70.1953V62.5391H535.133V70.1953H527.32ZM519.469 7.85156V0H527.32V7.85156H519.469ZM519.469 70.1953V62.5391H527.32V70.1953H519.469ZM519.469 62.5391V54.6875H527.32V62.5391H519.469ZM519.469 54.6875V46.875H527.32V54.6875H519.469ZM519.469 39.0234V31.2109H527.32V39.0234H519.469ZM519.469 31.2109V23.3594H527.32V31.2109H519.469ZM519.469 23.3594V15.5078H527.32V23.3594H519.469ZM511.617 7.85156V0H519.469V7.85156H511.617ZM519.469 70.1953V77.9297H511.617V70.1953H519.469ZM511.617 70.1953V62.5391H519.469V70.1953H511.617ZM511.617 62.5391V54.6875H519.469V62.5391H511.617ZM511.617 54.6875V46.875H519.469V54.6875H511.617ZM511.617 39.0234V31.2109H519.469V39.0234H511.617ZM511.617 31.2109V23.3594H519.469V31.2109H511.617ZM511.617 23.3594V15.5078H519.469V23.3594H511.617ZM503.961 7.85156V0H511.617V7.85156H503.961ZM511.617 70.1953V77.9297H503.961V70.1953H511.617ZM503.961 70.1953V62.5391H511.617V70.1953H503.961ZM503.961 62.5391V54.6875H511.617V62.5391H503.961ZM503.961 54.6875V46.875H511.617V54.6875H503.961ZM503.961 39.0234V31.2109H511.617V39.0234H503.961ZM503.961 31.2109V23.3594H511.617V31.2109H503.961ZM503.961 23.3594V15.5078H511.617V23.3594H503.961ZM496.109 7.85156V0H503.961V7.85156H496.109ZM503.961 70.1953V77.9297H496.109V70.1953H503.961ZM496.109 70.1953V62.5391H503.961V70.1953H496.109ZM488.297 7.85156V0H496.109V7.85156H488.297ZM496.109 70.1953V77.9297H488.297V70.1953H496.109ZM488.297 70.1953V62.5391H496.109V70.1953H488.297ZM488.297 15.5078V7.85156H496.109V15.5078H488.297ZM480.445 70.1953V62.5391H488.297V70.1953H480.445ZM480.445 62.5391V54.6875H488.297V62.5391H480.445ZM480.445 54.6875V46.875H488.297V54.6875H480.445ZM480.445 46.875V39.0234H488.297V46.875H480.445ZM480.445 39.0234V31.2109H488.297V39.0234H480.445ZM480.445 31.2109V23.3594H488.297V31.2109H480.445ZM480.445 23.3594V15.5078H488.297V23.3594H480.445ZM480.445 15.5078V7.85156H488.297V15.5078H480.445Z" fill="#352B52"/>
<path d="M621.188 70.1953V77.9297H613.375V70.1953H621.188ZM613.375 70.1953V62.5391H621.188V70.1953H613.375ZM613.375 62.5391V54.6875H621.188V62.5391H613.375ZM613.375 70.1953V77.9297H605.523V70.1953H613.375ZM605.523 70.1953V62.5391H613.375V70.1953H605.523ZM605.523 62.5391V54.6875H613.375V62.5391H605.523ZM605.523 54.6875V46.875H613.375V54.6875H605.523ZM605.523 70.1953V77.9297H597.711V70.1953H605.523ZM597.711 70.1953V62.5391H605.523V70.1953H597.711ZM597.711 54.6875V46.875H605.523V54.6875H597.711ZM597.711 70.1953V77.9297H589.859V70.1953H597.711ZM589.859 70.1953V62.5391H597.711V70.1953H589.859ZM589.859 54.6875V46.875H597.711V54.6875H589.859ZM589.859 70.1953V77.9297H582.008V70.1953H589.859ZM582.008 70.1953V62.5391H589.859V70.1953H582.008ZM582.008 54.6875V46.875H589.859V54.6875H582.008ZM582.008 46.875V39.0234H589.859V46.875H582.008ZM582.008 39.0234V31.2109H589.859V39.0234H582.008ZM582.008 31.2109V23.3594H589.859V31.2109H582.008ZM582.008 23.3594V15.5078H589.859V23.3594H582.008ZM582.008 15.5078V7.85156H589.859V15.5078H582.008ZM574.352 7.85156V0H582.008V7.85156H574.352ZM582.008 70.1953V77.9297H574.352V70.1953H582.008ZM574.352 70.1953V62.5391H582.008V70.1953H574.352ZM574.352 54.6875V46.875H582.008V54.6875H574.352ZM574.352 46.875V39.0234H582.008V46.875H574.352ZM574.352 39.0234V31.2109H582.008V39.0234H574.352ZM574.352 31.2109V23.3594H582.008V31.2109H574.352ZM574.352 23.3594V15.5078H582.008V23.3594H574.352ZM574.352 15.5078V7.85156H582.008V15.5078H574.352ZM566.5 7.85156V0H574.352V7.85156H566.5ZM574.352 70.1953V77.9297H566.5V70.1953H574.352ZM566.5 70.1953V62.5391H574.352V70.1953H566.5ZM558.688 7.85156V0H566.5V7.85156H558.688ZM566.5 70.1953V77.9297H558.688V70.1953H566.5ZM558.688 70.1953V62.5391H566.5V70.1953H558.688ZM550.836 7.85156V0H558.688V7.85156H550.836ZM550.836 70.1953V62.5391H558.688V70.1953H550.836ZM550.836 62.5391V54.6875H558.688V62.5391H550.836ZM550.836 54.6875V46.875H558.688V54.6875H550.836ZM550.836 46.875V39.0234H558.688V46.875H550.836ZM550.836 39.0234V31.2109H558.688V39.0234H550.836ZM550.836 31.2109V23.3594H558.688V31.2109H550.836ZM550.836 23.3594V15.5078H558.688V23.3594H550.836ZM550.836 15.5078V7.85156H558.688V15.5078H550.836Z" fill="#352B52"/>
<path d="M62.6328 131.211V123.359H70.4453V131.211H62.6328ZM62.6328 123.359V115.508H70.4453V123.359H62.6328ZM62.6328 115.508V107.852H70.4453V115.508H62.6328ZM54.7812 107.852V100H62.6328V107.852H54.7812ZM54.7812 131.211V123.359H62.6328V131.211H54.7812ZM54.7812 123.359V115.508H62.6328V123.359H54.7812ZM54.7812 115.508V107.852H62.6328V115.508H54.7812ZM46.9688 107.852V100H54.7812V107.852H46.9688ZM54.7812 170.195V177.93H46.9688V170.195H54.7812ZM46.9688 170.195V162.539H54.7812V170.195H46.9688ZM46.9688 162.539V154.688H54.7812V162.539H46.9688ZM46.9688 154.688V146.875H54.7812V154.688H46.9688ZM46.9688 146.875V139.023H54.7812V146.875H46.9688ZM46.9688 139.023V131.211H54.7812V139.023H46.9688ZM46.9688 131.211V123.359H54.7812V131.211H46.9688ZM46.9688 123.359V115.508H54.7812V123.359H46.9688ZM39.1172 107.852V100H46.9688V107.852H39.1172ZM46.9688 170.195V177.93H39.1172V170.195H46.9688ZM39.1172 170.195V162.539H46.9688V170.195H39.1172ZM39.1172 162.539V154.688H46.9688V162.539H39.1172ZM39.1172 154.688V146.875H46.9688V154.688H39.1172ZM39.1172 146.875V139.023H46.9688V146.875H39.1172ZM39.1172 139.023V131.211H46.9688V139.023H39.1172ZM39.1172 131.211V123.359H46.9688V131.211H39.1172ZM39.1172 123.359V115.508H46.9688V123.359H39.1172ZM31.2656 107.852V100H39.1172V107.852H31.2656ZM39.1172 170.195V177.93H31.2656V170.195H39.1172ZM31.2656 170.195V162.539H39.1172V170.195H31.2656ZM23.6094 107.852V100H31.2656V107.852H23.6094ZM31.2656 170.195V177.93H23.6094V170.195H31.2656ZM23.6094 170.195V162.539H31.2656V170.195H23.6094ZM15.7578 107.852V100H23.6094V107.852H15.7578ZM15.7578 170.195V162.539H23.6094V170.195H15.7578ZM15.7578 162.539V154.688H23.6094V162.539H15.7578ZM15.7578 154.688V146.875H23.6094V154.688H15.7578ZM15.7578 146.875V139.023H23.6094V146.875H15.7578ZM15.7578 139.023V131.211H23.6094V139.023H15.7578ZM15.7578 131.211V123.359H23.6094V131.211H15.7578ZM15.7578 123.359V115.508H23.6094V123.359H15.7578ZM7.94531 107.852V100H15.7578V107.852H7.94531ZM7.94531 123.359V115.508H15.7578V123.359H7.94531ZM0.09375 107.852V100H7.94531V107.852H0.09375ZM0.09375 123.359V115.508H7.94531V123.359H0.09375ZM0.09375 115.508V107.852H7.94531V115.508H0.09375Z" fill="#352B52"/>
<path d="M140.719 170.195V177.93H133.023V170.195H140.719ZM133.023 170.195V162.539H140.719V170.195H133.023ZM133.023 162.539V154.688H140.719V162.539H133.023ZM133.023 131.211V123.359H140.719V131.211H133.023ZM133.023 123.359V115.508H140.719V123.359H133.023ZM133.023 115.508V107.852H140.719V115.508H133.023ZM125.211 107.852V100H133.023V107.852H125.211ZM133.023 170.195V177.93H125.211V170.195H133.023ZM125.211 170.195V162.539H133.023V170.195H125.211ZM125.211 162.539V154.688H133.023V162.539H125.211ZM125.211 154.688V146.875H133.023V154.688H125.211ZM125.211 146.875V139.023H133.023V146.875H125.211ZM125.211 139.023V131.211H133.023V139.023H125.211ZM125.211 131.211V123.359H133.023V131.211H125.211ZM125.211 123.359V115.508H133.023V123.359H125.211ZM125.211 115.508V107.852H133.023V115.508H125.211ZM117.359 107.852V100H125.211V107.852H117.359ZM125.211 170.195V177.93H117.359V170.195H125.211ZM117.359 170.195V162.539H125.211V170.195H117.359ZM117.359 154.688V146.875H125.211V154.688H117.359ZM117.359 146.875V139.023H125.211V146.875H117.359ZM117.359 139.023V131.211H125.211V139.023H117.359ZM117.359 131.211V123.359H125.211V131.211H117.359ZM117.359 123.359V115.508H125.211V123.359H117.359ZM109.547 107.852V100H117.359V107.852H109.547ZM117.359 170.195V177.93H109.547V170.195H117.359ZM109.547 170.195V162.539H117.359V170.195H109.547ZM109.547 154.688V146.875H117.359V154.688H109.547ZM109.547 146.875V139.023H117.359V146.875H109.547ZM109.547 131.211V123.359H117.359V131.211H109.547ZM109.547 123.359V115.508H117.359V123.359H109.547ZM101.695 107.852V100H109.547V107.852H101.695ZM109.547 170.195V177.93H101.695V170.195H109.547ZM101.695 170.195V162.539H109.547V170.195H101.695ZM101.695 154.688V146.875H109.547V154.688H101.695ZM101.695 146.875V139.023H109.547V146.875H101.695ZM101.695 131.211V123.359H109.547V131.211H101.695ZM101.695 123.359V115.508H109.547V123.359H101.695ZM93.8438 107.852V100H101.695V107.852H93.8438ZM101.695 170.195V177.93H93.8438V170.195H101.695ZM93.8438 170.195V162.539H101.695V170.195H93.8438ZM93.8438 154.688V146.875H101.695V154.688H93.8438ZM93.8438 146.875V139.023H101.695V146.875H93.8438ZM93.8438 131.211V123.359H101.695V131.211H93.8438ZM93.8438 123.359V115.508H101.695V123.359H93.8438ZM86.1875 107.852V100H93.8438V107.852H86.1875ZM93.8438 170.195V177.93H86.1875V170.195H93.8438ZM86.1875 170.195V162.539H93.8438V170.195H86.1875ZM86.1875 154.688V146.875H93.8438V154.688H86.1875ZM86.1875 146.875V139.023H93.8438V146.875H86.1875ZM86.1875 131.211V123.359H93.8438V131.211H86.1875ZM86.1875 123.359V115.508H93.8438V123.359H86.1875ZM78.3359 107.852V100H86.1875V107.852H78.3359ZM86.1875 170.195V177.93H78.3359V170.195H86.1875ZM78.3359 170.195V162.539H86.1875V170.195H78.3359ZM70.5234 107.852V100H78.3359V107.852H70.5234ZM78.3359 170.195V177.93H70.5234V170.195H78.3359ZM70.5234 170.195V162.539H78.3359V170.195H70.5234ZM62.6719 107.852V100H70.5234V107.852H62.6719ZM62.6719 170.195V162.539H70.5234V170.195H62.6719ZM62.6719 162.539V154.688H70.5234V162.539H62.6719ZM62.6719 154.688V146.875H70.5234V154.688H62.6719ZM62.6719 146.875V139.023H70.5234V146.875H62.6719ZM62.6719 139.023V131.211H70.5234V139.023H62.6719ZM62.6719 131.211V123.359H70.5234V131.211H62.6719ZM62.6719 123.359V115.508H70.5234V123.359H62.6719ZM62.6719 115.508V107.852H70.5234V115.508H62.6719Z" fill="#352B52"/>
<path d="M203.414 170.195V162.539H211.109V170.195H203.414ZM203.414 162.539V154.688H211.109V162.539H203.414ZM203.414 154.688V146.875H211.109V154.688H203.414ZM203.414 139.023V131.211H211.109V139.023H203.414ZM203.414 131.211V123.359H211.109V131.211H203.414ZM203.414 123.359V115.508H211.109V123.359H203.414ZM203.414 170.195V177.93H195.602V170.195H203.414ZM195.602 170.195V162.539H203.414V170.195H195.602ZM195.602 162.539V154.688H203.414V162.539H195.602ZM195.602 154.688V146.875H203.414V154.688H195.602ZM195.602 146.875V139.023H203.414V146.875H195.602ZM195.602 139.023V131.211H203.414V139.023H195.602ZM195.602 131.211V123.359H203.414V131.211H195.602ZM195.602 123.359V115.508H203.414V123.359H195.602ZM195.602 115.508V107.852H203.414V115.508H195.602ZM187.75 107.852V100H195.602V107.852H187.75ZM195.602 170.195V177.93H187.75V170.195H195.602ZM187.75 170.195V162.539H195.602V170.195H187.75ZM187.75 162.539V154.688H195.602V162.539H187.75ZM187.75 146.875V139.023H195.602V146.875H187.75ZM187.75 139.023V131.211H195.602V139.023H187.75ZM187.75 131.211V123.359H195.602V131.211H187.75ZM187.75 115.508V107.852H195.602V115.508H187.75ZM179.938 107.852V100H187.75V107.852H179.938ZM187.75 170.195V177.93H179.938V170.195H187.75ZM179.938 170.195V162.539H187.75V170.195H179.938ZM179.938 146.875V139.023H187.75V146.875H179.938ZM179.938 139.023V131.211H187.75V139.023H179.938ZM179.938 131.211V123.359H187.75V131.211H179.938ZM172.086 107.852V100H179.938V107.852H172.086ZM179.938 170.195V177.93H172.086V170.195H179.938ZM172.086 170.195V162.539H179.938V170.195H172.086ZM172.086 154.688V146.875H179.938V154.688H172.086ZM172.086 146.875V139.023H179.938V146.875H172.086ZM172.086 139.023V131.211H179.938V139.023H172.086ZM172.086 131.211V123.359H179.938V131.211H172.086ZM172.086 123.359V115.508H179.938V123.359H172.086ZM164.234 107.852V100H172.086V107.852H164.234ZM172.086 170.195V177.93H164.234V170.195H172.086ZM164.234 170.195V162.539H172.086V170.195H164.234ZM164.234 154.688V146.875H172.086V154.688H164.234ZM164.234 146.875V139.023H172.086V146.875H164.234ZM164.234 139.023V131.211H172.086V139.023H164.234ZM164.234 131.211V123.359H172.086V131.211H164.234ZM164.234 123.359V115.508H172.086V123.359H164.234ZM156.578 107.852V100H164.234V107.852H156.578ZM164.234 170.195V177.93H156.578V170.195H164.234ZM156.578 170.195V162.539H164.234V170.195H156.578ZM156.578 154.688V146.875H164.234V154.688H156.578ZM156.578 146.875V139.023H164.234V146.875H156.578ZM156.578 139.023V131.211H164.234V139.023H156.578ZM156.578 131.211V123.359H164.234V131.211H156.578ZM156.578 123.359V115.508H164.234V123.359H156.578ZM148.727 107.852V100H156.578V107.852H148.727ZM156.578 170.195V177.93H148.727V170.195H156.578ZM148.727 170.195V162.539H156.578V170.195H148.727ZM140.914 107.852V100H148.727V107.852H140.914ZM140.914 170.195V162.539H148.727V170.195H140.914ZM140.914 162.539V154.688H148.727V162.539H140.914ZM140.914 115.508V107.852H148.727V115.508H140.914ZM133.062 162.539V154.688H140.914V162.539H133.062ZM133.062 154.688V146.875H140.914V154.688H133.062ZM133.062 146.875V139.023H140.914V146.875H133.062ZM133.062 139.023V131.211H140.914V139.023H133.062ZM133.062 131.211V123.359H140.914V131.211H133.062ZM133.062 123.359V115.508H140.914V123.359H133.062ZM133.062 115.508V107.852H140.914V115.508H133.062Z" fill="#352B52"/>
<path d="M281.5 170.195V177.93H273.805V170.195H281.5ZM273.805 170.195V162.539H281.5V170.195H273.805ZM273.805 162.539V154.688H281.5V162.539H273.805ZM273.805 154.688V146.875H281.5V154.688H273.805ZM273.805 146.875V139.023H281.5V146.875H273.805ZM273.805 139.023V131.211H281.5V139.023H273.805ZM273.805 131.211V123.359H281.5V131.211H273.805ZM273.805 123.359V115.508H281.5V123.359H273.805ZM273.805 115.508V107.852H281.5V115.508H273.805ZM265.992 107.852V100H273.805V107.852H265.992ZM273.805 170.195V177.93H265.992V170.195H273.805ZM265.992 170.195V162.539H273.805V170.195H265.992ZM265.992 162.539V154.688H273.805V162.539H265.992ZM265.992 154.688V146.875H273.805V154.688H265.992ZM265.992 146.875V139.023H273.805V146.875H265.992ZM265.992 139.023V131.211H273.805V139.023H265.992ZM265.992 131.211V123.359H273.805V131.211H265.992ZM265.992 123.359V115.508H273.805V123.359H265.992ZM265.992 115.508V107.852H273.805V115.508H265.992ZM258.141 107.852V100H265.992V107.852H258.141ZM265.992 170.195V177.93H258.141V170.195H265.992ZM258.141 170.195V162.539H265.992V170.195H258.141ZM250.328 107.852V100H258.141V107.852H250.328ZM258.141 170.195V177.93H250.328V170.195H258.141ZM250.328 170.195V162.539H258.141V170.195H250.328ZM242.477 107.852V100H250.328V107.852H242.477ZM242.477 170.195V162.539H250.328V170.195H242.477ZM242.477 162.539V154.688H250.328V162.539H242.477ZM242.477 154.688V146.875H250.328V154.688H242.477ZM242.477 146.875V139.023H250.328V146.875H242.477ZM242.477 131.211V123.359H250.328V131.211H242.477ZM242.477 123.359V115.508H250.328V123.359H242.477ZM242.477 115.508V107.852H250.328V115.508H242.477ZM242.477 170.195V177.93H234.625V170.195H242.477ZM234.625 170.195V162.539H242.477V170.195H234.625ZM234.625 162.539V154.688H242.477V162.539H234.625ZM234.625 154.688V146.875H242.477V154.688H234.625ZM234.625 146.875V139.023H242.477V146.875H234.625ZM234.625 131.211V123.359H242.477V131.211H234.625ZM234.625 123.359V115.508H242.477V123.359H234.625ZM234.625 115.508V107.852H242.477V115.508H234.625ZM226.969 107.852V100H234.625V107.852H226.969ZM234.625 170.195V177.93H226.969V170.195H234.625ZM226.969 170.195V162.539H234.625V170.195H226.969ZM226.969 162.539V154.688H234.625V162.539H226.969ZM226.969 154.688V146.875H234.625V154.688H226.969ZM226.969 146.875V139.023H234.625V146.875H226.969ZM226.969 131.211V123.359H234.625V131.211H226.969ZM226.969 123.359V115.508H234.625V123.359H226.969ZM226.969 115.508V107.852H234.625V115.508H226.969ZM219.117 107.852V100H226.969V107.852H219.117ZM226.969 170.195V177.93H219.117V170.195H226.969ZM219.117 170.195V162.539H226.969V170.195H219.117ZM211.305 107.852V100H219.117V107.852H211.305ZM219.117 170.195V177.93H211.305V170.195H219.117ZM211.305 170.195V162.539H219.117V170.195H211.305ZM203.453 107.852V100H211.305V107.852H203.453ZM203.453 170.195V162.539H211.305V170.195H203.453ZM203.453 162.539V154.688H211.305V162.539H203.453ZM203.453 154.688V146.875H211.305V154.688H203.453ZM203.453 146.875V139.023H211.305V146.875H203.453ZM203.453 139.023V131.211H211.305V139.023H203.453ZM203.453 131.211V123.359H211.305V131.211H203.453ZM203.453 123.359V115.508H211.305V123.359H203.453ZM203.453 115.508V107.852H211.305V115.508H203.453Z" fill="#352B52"/>
<path d="M366.461 170.195V162.539H374.156V170.195H366.461ZM366.461 162.539V154.688H374.156V162.539H366.461ZM366.461 154.688V146.875H374.156V154.688H366.461ZM366.461 139.023V131.211H374.156V139.023H366.461ZM366.461 131.211V123.359H374.156V131.211H366.461ZM366.461 123.359V115.508H374.156V123.359H366.461ZM366.461 170.195V177.93H358.648V170.195H366.461ZM358.648 170.195V162.539H366.461V170.195H358.648ZM358.648 162.539V154.688H366.461V162.539H358.648ZM358.648 154.688V146.875H366.461V154.688H358.648ZM358.648 146.875V139.023H366.461V146.875H358.648ZM358.648 139.023V131.211H366.461V139.023H358.648ZM358.648 131.211V123.359H366.461V131.211H358.648ZM358.648 123.359V115.508H366.461V123.359H358.648ZM358.648 115.508V107.852H366.461V115.508H358.648ZM350.797 107.852V100H358.648V107.852H350.797ZM358.648 170.195V177.93H350.797V170.195H358.648ZM350.797 170.195V162.539H358.648V170.195H350.797ZM350.797 162.539V154.688H358.648V162.539H350.797ZM350.797 146.875V139.023H358.648V146.875H350.797ZM350.797 139.023V131.211H358.648V139.023H350.797ZM350.797 131.211V123.359H358.648V131.211H350.797ZM350.797 115.508V107.852H358.648V115.508H350.797ZM342.984 107.852V100H350.797V107.852H342.984ZM350.797 170.195V177.93H342.984V170.195H350.797ZM342.984 170.195V162.539H350.797V170.195H342.984ZM342.984 146.875V139.023H350.797V146.875H342.984ZM342.984 139.023V131.211H350.797V139.023H342.984ZM342.984 131.211V123.359H350.797V131.211H342.984ZM335.133 107.852V100H342.984V107.852H335.133ZM342.984 170.195V177.93H335.133V170.195H342.984ZM335.133 170.195V162.539H342.984V170.195H335.133ZM335.133 154.688V146.875H342.984V154.688H335.133ZM335.133 146.875V139.023H342.984V146.875H335.133ZM335.133 139.023V131.211H342.984V139.023H335.133ZM335.133 131.211V123.359H342.984V131.211H335.133ZM335.133 123.359V115.508H342.984V123.359H335.133ZM327.281 107.852V100H335.133V107.852H327.281ZM335.133 170.195V177.93H327.281V170.195H335.133ZM327.281 170.195V162.539H335.133V170.195H327.281ZM327.281 154.688V146.875H335.133V154.688H327.281ZM327.281 146.875V139.023H335.133V146.875H327.281ZM327.281 139.023V131.211H335.133V139.023H327.281ZM327.281 131.211V123.359H335.133V131.211H327.281ZM327.281 123.359V115.508H335.133V123.359H327.281ZM319.625 107.852V100H327.281V107.852H319.625ZM327.281 170.195V177.93H319.625V170.195H327.281ZM319.625 170.195V162.539H327.281V170.195H319.625ZM319.625 154.688V146.875H327.281V154.688H319.625ZM319.625 146.875V139.023H327.281V146.875H319.625ZM319.625 139.023V131.211H327.281V139.023H319.625ZM319.625 131.211V123.359H327.281V131.211H319.625ZM319.625 123.359V115.508H327.281V123.359H319.625ZM311.773 107.852V100H319.625V107.852H311.773ZM319.625 170.195V177.93H311.773V170.195H319.625ZM311.773 170.195V162.539H319.625V170.195H311.773ZM303.961 107.852V100H311.773V107.852H303.961ZM303.961 170.195V162.539H311.773V170.195H303.961ZM303.961 162.539V154.688H311.773V162.539H303.961ZM303.961 115.508V107.852H311.773V115.508H303.961ZM296.109 162.539V154.688H303.961V162.539H296.109ZM296.109 154.688V146.875H303.961V154.688H296.109ZM296.109 146.875V139.023H303.961V146.875H296.109ZM296.109 139.023V131.211H303.961V139.023H296.109ZM296.109 131.211V123.359H303.961V131.211H296.109ZM296.109 123.359V115.508H303.961V123.359H296.109ZM296.109 115.508V107.852H303.961V115.508H296.109Z" fill="#352B52"/>
<path d="M436.852 170.195V162.539H444.547V170.195H436.852ZM436.852 162.539V154.688H444.547V162.539H436.852ZM436.852 154.688V146.875H444.547V154.688H436.852ZM436.852 146.875V139.023H444.547V146.875H436.852ZM436.852 139.023V131.211H444.547V139.023H436.852ZM436.852 131.211V123.359H444.547V131.211H436.852ZM436.852 123.359V115.508H444.547V123.359H436.852ZM436.852 170.195V177.93H429.039V170.195H436.852ZM429.039 170.195V162.539H436.852V170.195H429.039ZM429.039 162.539V154.688H436.852V162.539H429.039ZM429.039 154.688V146.875H436.852V154.688H429.039ZM429.039 146.875V139.023H436.852V146.875H429.039ZM429.039 139.023V131.211H436.852V139.023H429.039ZM429.039 131.211V123.359H436.852V131.211H429.039ZM429.039 123.359V115.508H436.852V123.359H429.039ZM429.039 115.508V107.852H436.852V115.508H429.039ZM421.188 107.852V100H429.039V107.852H421.188ZM429.039 170.195V177.93H421.188V170.195H429.039ZM421.188 170.195V162.539H429.039V170.195H421.188ZM421.188 162.539V154.688H429.039V162.539H421.188ZM421.188 115.508V107.852H429.039V115.508H421.188ZM413.375 107.852V100H421.188V107.852H413.375ZM421.188 170.195V177.93H413.375V170.195H421.188ZM413.375 170.195V162.539H421.188V170.195H413.375ZM405.523 107.852V100H413.375V107.852H405.523ZM413.375 170.195V177.93H405.523V170.195H413.375ZM405.523 170.195V162.539H413.375V170.195H405.523ZM405.523 154.688V146.875H413.375V154.688H405.523ZM405.523 146.875V139.023H413.375V146.875H405.523ZM405.523 139.023V131.211H413.375V139.023H405.523ZM405.523 131.211V123.359H413.375V131.211H405.523ZM405.523 123.359V115.508H413.375V123.359H405.523ZM397.672 107.852V100H405.523V107.852H397.672ZM405.523 170.195V177.93H397.672V170.195H405.523ZM397.672 170.195V162.539H405.523V170.195H397.672ZM397.672 154.688V146.875H405.523V154.688H397.672ZM397.672 146.875V139.023H405.523V146.875H397.672ZM397.672 139.023V131.211H405.523V139.023H397.672ZM397.672 131.211V123.359H405.523V131.211H397.672ZM397.672 123.359V115.508H405.523V123.359H397.672ZM390.016 107.852V100H397.672V107.852H390.016ZM397.672 170.195V177.93H390.016V170.195H397.672ZM390.016 170.195V162.539H397.672V170.195H390.016ZM390.016 154.688V146.875H397.672V154.688H390.016ZM390.016 146.875V139.023H397.672V146.875H390.016ZM390.016 139.023V131.211H397.672V139.023H390.016ZM390.016 131.211V123.359H397.672V131.211H390.016ZM390.016 123.359V115.508H397.672V123.359H390.016ZM382.164 107.852V100H390.016V107.852H382.164ZM390.016 170.195V177.93H382.164V170.195H390.016ZM382.164 170.195V162.539H390.016V170.195H382.164ZM374.352 107.852V100H382.164V107.852H374.352ZM374.352 170.195V162.539H382.164V170.195H374.352ZM374.352 162.539V154.688H382.164V162.539H374.352ZM374.352 115.508V107.852H382.164V115.508H374.352ZM366.5 162.539V154.688H374.352V162.539H366.5ZM366.5 154.688V146.875H374.352V154.688H366.5ZM366.5 146.875V139.023H374.352V146.875H366.5ZM366.5 139.023V131.211H374.352V139.023H366.5ZM366.5 131.211V123.359H374.352V131.211H366.5ZM366.5 123.359V115.508H374.352V123.359H366.5ZM366.5 115.508V107.852H374.352V115.508H366.5Z" fill="#352B52"/>
<path d="M507.242 170.195V177.93H499.43V170.195H507.242ZM499.43 170.195V162.539H507.242V170.195H499.43ZM499.43 162.539V154.688H507.242V162.539H499.43ZM499.43 170.195V177.93H491.578V170.195H499.43ZM491.578 170.195V162.539H499.43V170.195H491.578ZM491.578 162.539V154.688H499.43V162.539H491.578ZM491.578 154.688V146.875H499.43V154.688H491.578ZM491.578 170.195V177.93H483.766V170.195H491.578ZM483.766 170.195V162.539H491.578V170.195H483.766ZM483.766 154.688V146.875H491.578V154.688H483.766ZM483.766 170.195V177.93H475.914V170.195H483.766ZM475.914 170.195V162.539H483.766V170.195H475.914ZM475.914 154.688V146.875H483.766V154.688H475.914ZM475.914 170.195V177.93H468.062V170.195H475.914ZM468.062 170.195V162.539H475.914V170.195H468.062ZM468.062 154.688V146.875H475.914V154.688H468.062ZM468.062 146.875V139.023H475.914V146.875H468.062ZM468.062 139.023V131.211H475.914V139.023H468.062ZM468.062 131.211V123.359H475.914V131.211H468.062ZM468.062 123.359V115.508H475.914V123.359H468.062ZM468.062 115.508V107.852H475.914V115.508H468.062ZM460.406 107.852V100H468.062V107.852H460.406ZM468.062 170.195V177.93H460.406V170.195H468.062ZM460.406 170.195V162.539H468.062V170.195H460.406ZM460.406 154.688V146.875H468.062V154.688H460.406ZM460.406 146.875V139.023H468.062V146.875H460.406ZM460.406 139.023V131.211H468.062V139.023H460.406ZM460.406 131.211V123.359H468.062V131.211H460.406ZM460.406 123.359V115.508H468.062V123.359H460.406ZM460.406 115.508V107.852H468.062V115.508H460.406ZM452.555 107.852V100H460.406V107.852H452.555ZM460.406 170.195V177.93H452.555V170.195H460.406ZM452.555 170.195V162.539H460.406V170.195H452.555ZM444.742 107.852V100H452.555V107.852H444.742ZM452.555 170.195V177.93H444.742V170.195H452.555ZM444.742 170.195V162.539H452.555V170.195H444.742ZM436.891 107.852V100H444.742V107.852H436.891ZM436.891 170.195V162.539H444.742V170.195H436.891ZM436.891 162.539V154.688H444.742V162.539H436.891ZM436.891 154.688V146.875H444.742V154.688H436.891ZM436.891 146.875V139.023H444.742V146.875H436.891ZM436.891 139.023V131.211H444.742V139.023H436.891ZM436.891 131.211V123.359H444.742V131.211H436.891ZM436.891 123.359V115.508H444.742V123.359H436.891ZM436.891 115.508V107.852H444.742V115.508H436.891Z" fill="#352B52"/>
<path d="M577.516 170.195V177.93H569.82V170.195H577.516ZM569.82 170.195V162.539H577.516V170.195H569.82ZM569.82 162.539V154.688H577.516V162.539H569.82ZM569.82 154.688V146.875H577.516V154.688H569.82ZM569.82 146.875V139.023H577.516V146.875H569.82ZM569.82 139.023V131.211H577.516V139.023H569.82ZM569.82 131.211V123.359H577.516V131.211H569.82ZM569.82 123.359V115.508H577.516V123.359H569.82ZM569.82 170.195V177.93H562.008V170.195H569.82ZM562.008 170.195V162.539H569.82V170.195H562.008ZM562.008 162.539V154.688H569.82V162.539H562.008ZM562.008 154.688V146.875H569.82V154.688H562.008ZM562.008 146.875V139.023H569.82V146.875H562.008ZM562.008 139.023V131.211H569.82V139.023H562.008ZM562.008 131.211V123.359H569.82V131.211H562.008ZM562.008 123.359V115.508H569.82V123.359H562.008ZM562.008 115.508V107.852H569.82V115.508H562.008ZM554.156 107.852V100H562.008V107.852H554.156ZM562.008 170.195V177.93H554.156V170.195H562.008ZM554.156 170.195V162.539H562.008V170.195H554.156ZM554.156 115.508V107.852H562.008V115.508H554.156ZM546.344 107.852V100H554.156V107.852H546.344ZM554.156 170.195V177.93H546.344V170.195H554.156ZM546.344 170.195V162.539H554.156V170.195H546.344ZM538.492 107.852V100H546.344V107.852H538.492ZM538.492 170.195V162.539H546.344V170.195H538.492ZM538.492 162.539V154.688H546.344V162.539H538.492ZM538.492 154.688V146.875H546.344V154.688H538.492ZM538.492 139.023V131.211H546.344V139.023H538.492ZM538.492 131.211V123.359H546.344V131.211H538.492ZM538.492 123.359V115.508H546.344V123.359H538.492ZM530.641 107.852V100H538.492V107.852H530.641ZM538.492 170.195V177.93H530.641V170.195H538.492ZM530.641 170.195V162.539H538.492V170.195H530.641ZM530.641 162.539V154.688H538.492V162.539H530.641ZM530.641 154.688V146.875H538.492V154.688H530.641ZM530.641 139.023V131.211H538.492V139.023H530.641ZM530.641 131.211V123.359H538.492V131.211H530.641ZM530.641 123.359V115.508H538.492V123.359H530.641ZM522.984 107.852V100H530.641V107.852H522.984ZM530.641 170.195V177.93H522.984V170.195H530.641ZM522.984 170.195V162.539H530.641V170.195H522.984ZM522.984 162.539V154.688H530.641V162.539H522.984ZM522.984 154.688V146.875H530.641V154.688H522.984ZM522.984 139.023V131.211H530.641V139.023H522.984ZM522.984 131.211V123.359H530.641V131.211H522.984ZM522.984 123.359V115.508H530.641V123.359H522.984ZM515.133 107.852V100H522.984V107.852H515.133ZM522.984 170.195V177.93H515.133V170.195H522.984ZM515.133 170.195V162.539H522.984V170.195H515.133ZM507.32 107.852V100H515.133V107.852H507.32ZM515.133 170.195V177.93H507.32V170.195H515.133ZM507.32 170.195V162.539H515.133V170.195H507.32ZM507.32 115.508V107.852H515.133V115.508H507.32ZM499.469 170.195V162.539H507.32V170.195H499.469ZM499.469 162.539V154.688H507.32V162.539H499.469ZM499.469 154.688V146.875H507.32V154.688H499.469ZM499.469 146.875V139.023H507.32V146.875H499.469ZM499.469 139.023V131.211H507.32V139.023H499.469ZM499.469 131.211V123.359H507.32V131.211H499.469ZM499.469 123.359V115.508H507.32V123.359H499.469ZM499.469 115.508V107.852H507.32V115.508H499.469Z" fill="#352B52"/>
<path d="M640.211 170.195V162.539H647.906V170.195H640.211ZM640.211 162.539V154.688H647.906V162.539H640.211ZM640.211 154.688V146.875H647.906V154.688H640.211ZM640.211 146.875V139.023H647.906V146.875H640.211ZM640.211 139.023V131.211H647.906V139.023H640.211ZM640.211 131.211V123.359H647.906V131.211H640.211ZM640.211 123.359V115.508H647.906V123.359H640.211ZM640.211 170.195V177.93H632.398V170.195H640.211ZM632.398 170.195V162.539H640.211V170.195H632.398ZM632.398 162.539V154.688H640.211V162.539H632.398ZM632.398 154.688V146.875H640.211V154.688H632.398ZM632.398 146.875V139.023H640.211V146.875H632.398ZM632.398 139.023V131.211H640.211V139.023H632.398ZM632.398 131.211V123.359H640.211V131.211H632.398ZM632.398 123.359V115.508H640.211V123.359H632.398ZM632.398 115.508V107.852H640.211V115.508H632.398ZM624.547 107.852V100H632.398V107.852H624.547ZM632.398 170.195V177.93H624.547V170.195H632.398ZM624.547 170.195V162.539H632.398V170.195H624.547ZM624.547 162.539V154.688H632.398V162.539H624.547ZM624.547 139.023V131.211H632.398V139.023H624.547ZM624.547 115.508V107.852H632.398V115.508H624.547ZM616.734 107.852V100H624.547V107.852H616.734ZM624.547 170.195V177.93H616.734V170.195H624.547ZM616.734 170.195V162.539H624.547V170.195H616.734ZM608.883 107.852V100H616.734V107.852H608.883ZM616.734 170.195V177.93H608.883V170.195H616.734ZM608.883 170.195V162.539H616.734V170.195H608.883ZM608.883 154.688V146.875H616.734V154.688H608.883ZM608.883 146.875V139.023H616.734V146.875H608.883ZM608.883 131.211V123.359H616.734V131.211H608.883ZM608.883 123.359V115.508H616.734V123.359H608.883ZM601.031 107.852V100H608.883V107.852H601.031ZM608.883 170.195V177.93H601.031V170.195H608.883ZM601.031 170.195V162.539H608.883V170.195H601.031ZM601.031 154.688V146.875H608.883V154.688H601.031ZM601.031 146.875V139.023H608.883V146.875H601.031ZM601.031 131.211V123.359H608.883V131.211H601.031ZM601.031 123.359V115.508H608.883V123.359H601.031ZM593.375 107.852V100H601.031V107.852H593.375ZM601.031 170.195V177.93H593.375V170.195H601.031ZM593.375 170.195V162.539H601.031V170.195H593.375ZM593.375 154.688V146.875H601.031V154.688H593.375ZM593.375 146.875V139.023H601.031V146.875H593.375ZM593.375 131.211V123.359H601.031V131.211H593.375ZM593.375 123.359V115.508H601.031V123.359H593.375ZM585.523 107.852V100H593.375V107.852H585.523ZM593.375 170.195V177.93H585.523V170.195H593.375ZM585.523 170.195V162.539H593.375V170.195H585.523ZM577.711 107.852V100H585.523V107.852H577.711ZM585.523 170.195V177.93H577.711V170.195H585.523ZM577.711 170.195V162.539H585.523V170.195H577.711ZM569.859 107.852V100H577.711V107.852H569.859ZM569.859 170.195V162.539H577.711V170.195H569.859ZM569.859 162.539V154.688H577.711V162.539H569.859ZM569.859 154.688V146.875H577.711V154.688H569.859ZM569.859 146.875V139.023H577.711V146.875H569.859ZM569.859 139.023V131.211H577.711V139.023H569.859ZM569.859 131.211V123.359H577.711V131.211H569.859ZM569.859 123.359V115.508H577.711V123.359H569.859ZM569.859 115.508V107.852H577.711V115.508H569.859Z" fill="#352B52"/>
</svg>
