<svg width="710" height="178" viewBox="0 0 710 178" fill="none" xmlns="http://www.w3.org/2000/svg">
<path d="M307.198 103.502H354.672V112.005H362.668V119.008H370.663V112.005H376.66V103.502H425.633V112.005H433.129V119.008H440.625V103.502H465.111V151.521H495.095V158.524H504.09V103.002L527.077 103.502V150.02H558.56V157.023H565.556V110.004H572.552V103.502H620.526V111.005H629.521V119.508H637.516V103.502L687.989 103.002L690.487 111.005H696.984V166.027H377.659V159.024H370.663V134.514H364.667V152.521L355.172 166.027H307.198L306.199 158.524L298.703 155.522V115.507L307.198 112.005V103.502Z" fill="white"/>
<path d="M5.36424 104.502H60.334V111.005H65.3312V104.502H128.297V158.023H136.292V112.005H143.788V103.502H189.763V112.005H200.257V150.52H206.753V105.503H228.741V114.506H246.232V104.502H270.219V165.526H146.786L140.79 159.024L136.292 161.525L133.794 167.027H66.8304V125.01H45.842V165.526H20.8557V119.508H5.36424V104.502Z" fill="white"/>
<path d="M64.3318 6.46349H116.803L123.299 12.9661L129.296 17.4678L136.292 3.46231H182.767L198.758 17.4678L214.749 3.46231H253.228L269.219 16.9676L284.711 3.46231H323.189L339.68 16.9676L355.172 3.46231H396.649L410.641 22.4698L422.135 3.46231H468.609V9.96487H479.104V53.4821H483.601V3.46231H508.587V9.96487H523.079V3.46231H571.053V10.9653H579.548V17.968H585.545V3.46231H609.532V49.9807H640.015V66.9874H423.134V60.4848H413.14V66.9874H351.174V60.4848H343.678V66.9874H280.213V60.4848H272.717V66.9874H210.252V60.4848H202.756V66.9874H132.794V50.4809H87.8189V63.9862H64.3318V6.46349Z" fill="white"/>
<path d="M128.406 54.7091V46.8935H136.097V54.7091H128.406ZM128.406 46.8935V39.0389H136.097V46.8935H128.406ZM128.406 39.0389V31.2233H136.097V39.0389H128.406ZM128.406 31.2233V23.3686H136.097V31.2233H128.406ZM128.406 23.3686V15.5139H136.097V23.3686H128.406ZM120.598 62.5638V54.7091H128.406V62.5638H120.598ZM120.598 54.7091V46.8935H128.406V54.7091H120.598ZM120.598 46.8935V39.0389H128.406V46.8935H120.598ZM120.598 39.0389V31.2233H128.406V39.0389H120.598ZM120.598 31.2233V23.3686H128.406V31.2233H120.598ZM120.598 23.3686V15.5139H128.406V23.3686H120.598ZM120.598 15.5139V7.85467H128.406V15.5139H120.598ZM112.75 7.85467V0H120.598V7.85467H112.75ZM112.75 62.5638V54.7091H120.598V62.5638H112.75ZM112.75 54.7091V46.8935H120.598V54.7091H112.75ZM112.75 46.8935V39.0389H120.598V46.8935H112.75ZM112.75 15.5139V7.85467H120.598V15.5139H112.75ZM104.942 7.85467V0H112.75V7.85467H104.942ZM104.942 62.5638V54.7091H112.75V62.5638H104.942ZM104.942 54.7091V46.8935H112.75V54.7091H104.942ZM97.095 7.85467V0H104.942V7.85467H97.095ZM97.095 62.5638V54.7091H104.942V62.5638H97.095ZM97.095 54.7091V46.8935H104.942V54.7091H97.095ZM97.095 39.0389V31.2233H104.942V39.0389H97.095ZM97.095 31.2233V23.3686H104.942V31.2233H97.095ZM97.095 23.3686V15.5139H104.942V23.3686H97.095ZM89.2478 7.85467V0H97.095V7.85467H89.2478ZM97.095 70.2231V77.9605H89.2478V70.2231H97.095ZM89.2478 70.2231V62.5638H97.095V70.2231H89.2478ZM89.2478 62.5638V54.7091H97.095V62.5638H89.2478ZM89.2478 54.7091V46.8935H97.095V54.7091H89.2478ZM89.2478 39.0389V31.2233H97.095V39.0389H89.2478ZM89.2478 31.2233V23.3686H97.095V31.2233H89.2478ZM89.2478 23.3686V15.5139H97.095V23.3686H89.2478ZM81.5957 7.85467V0H89.2478V7.85467H81.5957ZM89.2478 70.2231V77.9605H81.5957V70.2231H89.2478ZM81.5957 70.2231V62.5638H89.2478V70.2231H81.5957ZM81.5957 62.5638V54.7091H89.2478V62.5638H81.5957ZM81.5957 54.7091V46.8935H89.2478V54.7091H81.5957ZM81.5957 39.0389V31.2233H89.2478V39.0389H81.5957ZM81.5957 31.2233V23.3686H89.2478V31.2233H81.5957ZM81.5957 23.3686V15.5139H89.2478V23.3686H81.5957ZM73.7485 7.85467V0H81.5957V7.85467H73.7485ZM81.5957 70.2231V77.9605H73.7485V70.2231H81.5957ZM73.7485 70.2231V62.5638H81.5957V70.2231H73.7485ZM65.9403 7.85467V0H73.7485V7.85467H65.9403ZM73.7485 70.2231V77.9605H65.9403V70.2231H73.7485ZM65.9403 70.2231V62.5638H73.7485V70.2231H65.9403ZM58.093 7.85467V0H65.9403V7.85467H58.093ZM58.093 70.2231V62.5638H65.9403V70.2231H58.093ZM58.093 62.5638V54.7091H65.9403V62.5638H58.093ZM58.093 54.7091V46.8935H65.9403V54.7091H58.093ZM58.093 46.8935V39.0389H65.9403V46.8935H58.093ZM58.093 39.0389V31.2233H65.9403V39.0389H58.093ZM58.093 31.2233V23.3686H65.9403V31.2233H58.093ZM58.093 23.3686V15.5139H65.9403V23.3686H58.093ZM58.093 15.5139V7.85467H65.9403V15.5139H58.093Z" fill="#352B52"/>
<path d="M206.449 70.2231V77.9605H198.758V70.2231H206.449ZM198.758 70.2231V62.5638H206.449V70.2231H198.758ZM198.758 62.5638V54.7091H206.449V62.5638H198.758ZM198.758 54.7091V46.8935H206.449V54.7091H198.758ZM198.758 46.8935V39.0389H206.449V46.8935H198.758ZM198.758 39.0389V31.2233H206.449V39.0389H198.758ZM198.758 31.2233V23.3686H206.449V31.2233H198.758ZM198.758 23.3686V15.5139H206.449V23.3686H198.758ZM198.758 70.2231V77.9605H190.95V70.2231H198.758ZM190.95 70.2231V62.5638H198.758V70.2231H190.95ZM190.95 62.5638V54.7091H198.758V62.5638H190.95ZM190.95 54.7091V46.8935H198.758V54.7091H190.95ZM190.95 46.8935V39.0389H198.758V46.8935H190.95ZM190.95 39.0389V31.2233H198.758V39.0389H190.95ZM190.95 31.2233V23.3686H198.758V31.2233H190.95ZM190.95 23.3686V15.5139H198.758V23.3686H190.95ZM190.95 15.5139V7.85467H198.758V15.5139H190.95ZM183.102 7.85467V0H190.95V7.85467H183.102ZM190.95 70.2231V77.9605H183.102V70.2231H190.95ZM183.102 70.2231V62.5638H190.95V70.2231H183.102ZM183.102 39.0389V31.2233H190.95V39.0389H183.102ZM183.102 15.5139V7.85467H190.95V15.5139H183.102ZM175.294 7.85467V0H183.102V7.85467H175.294ZM183.102 70.2231V77.9605H175.294V70.2231H183.102ZM175.294 70.2231V62.5638H183.102V70.2231H175.294ZM167.447 7.85467V0H175.294V7.85467H167.447ZM167.447 70.2231V62.5638H175.294V70.2231H167.447ZM167.447 62.5638V54.7091H175.294V62.5638H167.447ZM167.447 54.7091V46.8935H175.294V54.7091H167.447ZM167.447 46.8935V39.0389H175.294V46.8935H167.447ZM167.447 31.2233V23.3686H175.294V31.2233H167.447ZM167.447 23.3686V15.5139H175.294V23.3686H167.447ZM159.6 7.85467V0H167.447V7.85467H159.6ZM167.447 70.2231V77.9605H159.6V70.2231H167.447ZM159.6 70.2231V62.5638H167.447V70.2231H159.6ZM159.6 62.5638V54.7091H167.447V62.5638H159.6ZM159.6 54.7091V46.8935H167.447V54.7091H159.6ZM159.6 46.8935V39.0389H167.447V46.8935H159.6ZM159.6 31.2233V23.3686H167.447V31.2233H159.6ZM159.6 23.3686V15.5139H167.447V23.3686H159.6ZM151.948 7.85467V0H159.6V7.85467H151.948ZM159.6 70.2231V77.9605H151.948V70.2231H159.6ZM151.948 70.2231V62.5638H159.6V70.2231H151.948ZM151.948 62.5638V54.7091H159.6V62.5638H151.948ZM151.948 54.7091V46.8935H159.6V54.7091H151.948ZM151.948 46.8935V39.0389H159.6V46.8935H151.948ZM151.948 31.2233V23.3686H159.6V31.2233H151.948ZM151.948 23.3686V15.5139H159.6V23.3686H151.948ZM144.1 7.85467V0H151.948V7.85467H144.1ZM151.948 70.2231V77.9605H144.1V70.2231H151.948ZM144.1 70.2231V62.5638H151.948V70.2231H144.1ZM136.292 7.85467V0H144.1V7.85467H136.292ZM144.1 70.2231V77.9605H136.292V70.2231H144.1ZM136.292 70.2231V62.5638H144.1V70.2231H136.292ZM128.445 7.85467V0H136.292V7.85467H128.445ZM128.445 70.2231V62.5638H136.292V70.2231H128.445ZM128.445 62.5638V54.7091H136.292V62.5638H128.445ZM128.445 54.7091V46.8935H136.292V54.7091H128.445ZM128.445 46.8935V39.0389H136.292V46.8935H128.445ZM128.445 39.0389V31.2233H136.292V39.0389H128.445ZM128.445 31.2233V23.3686H136.292V31.2233H128.445ZM128.445 23.3686V15.5139H136.292V23.3686H128.445ZM128.445 15.5139V7.85467H136.292V15.5139H128.445Z" fill="#352B52"/>
<path d="M269.11 70.2231V62.5638H276.801V70.2231H269.11ZM269.11 62.5638V54.7091H276.801V62.5638H269.11ZM269.11 54.7091V46.8935H276.801V54.7091H269.11ZM269.11 46.8935V39.0389H276.801V46.8935H269.11ZM269.11 39.0389V31.2233H276.801V39.0389H269.11ZM269.11 31.2233V23.3686H276.801V31.2233H269.11ZM269.11 23.3686V15.5139H276.801V23.3686H269.11ZM269.11 70.2231V77.9605H261.302V70.2231H269.11ZM261.302 70.2231V62.5638H269.11V70.2231H261.302ZM261.302 62.5638V54.7091H269.11V62.5638H261.302ZM261.302 54.7091V46.8935H269.11V54.7091H261.302ZM261.302 46.8935V39.0389H269.11V46.8935H261.302ZM261.302 39.0389V31.2233H269.11V39.0389H261.302ZM261.302 31.2233V23.3686H269.11V31.2233H261.302ZM261.302 23.3686V15.5139H269.11V23.3686H261.302ZM261.302 15.5139V7.85467H269.11V15.5139H261.302ZM253.454 7.85467V0H261.302V7.85467H253.454ZM261.302 70.2231V77.9605H253.454V70.2231H261.302ZM253.454 70.2231V62.5638H261.302V70.2231H253.454ZM253.454 62.5638V54.7091H261.302V62.5638H253.454ZM253.454 15.5139V7.85467H261.302V15.5139H253.454ZM245.646 7.85467V0H253.454V7.85467H245.646ZM253.454 70.2231V77.9605H245.646V70.2231H253.454ZM245.646 70.2231V62.5638H253.454V70.2231H245.646ZM237.799 7.85467V0H245.646V7.85467H237.799ZM245.646 70.2231V77.9605H237.799V70.2231H245.646ZM237.799 70.2231V62.5638H245.646V70.2231H237.799ZM237.799 54.7091V46.8935H245.646V54.7091H237.799ZM237.799 46.8935V39.0389H245.646V46.8935H237.799ZM237.799 39.0389V31.2233H245.646V39.0389H237.799ZM237.799 31.2233V23.3686H245.646V31.2233H237.799ZM237.799 23.3686V15.5139H245.646V23.3686H237.799ZM229.952 7.85467V0H237.799V7.85467H229.952ZM237.799 70.2231V77.9605H229.952V70.2231H237.799ZM229.952 70.2231V62.5638H237.799V70.2231H229.952ZM229.952 54.7091V46.8935H237.799V54.7091H229.952ZM229.952 46.8935V39.0389H237.799V46.8935H229.952ZM229.952 39.0389V31.2233H237.799V39.0389H229.952ZM229.952 31.2233V23.3686H237.799V31.2233H229.952ZM229.952 23.3686V15.5139H237.799V23.3686H229.952ZM222.3 7.85467V0H229.952V7.85467H222.3ZM229.952 70.2231V77.9605H222.3V70.2231H229.952ZM222.3 70.2231V62.5638H229.952V70.2231H222.3ZM222.3 54.7091V46.8935H229.952V54.7091H222.3ZM222.3 46.8935V39.0389H229.952V46.8935H222.3ZM222.3 39.0389V31.2233H229.952V39.0389H222.3ZM222.3 31.2233V23.3686H229.952V31.2233H222.3ZM222.3 23.3686V15.5139H229.952V23.3686H222.3ZM214.452 7.85467V0H222.3V7.85467H214.452ZM222.3 70.2231V77.9605H214.452V70.2231H222.3ZM214.452 70.2231V62.5638H222.3V70.2231H214.452ZM206.644 7.85467V0H214.452V7.85467H206.644ZM206.644 70.2231V62.5638H214.452V70.2231H206.644ZM206.644 62.5638V54.7091H214.452V62.5638H206.644ZM206.644 15.5139V7.85467H214.452V15.5139H206.644ZM198.797 62.5638V54.7091H206.644V62.5638H198.797ZM198.797 54.7091V46.8935H206.644V54.7091H198.797ZM198.797 46.8935V39.0389H206.644V46.8935H198.797ZM198.797 39.0389V31.2233H206.644V39.0389H198.797ZM198.797 31.2233V23.3686H206.644V31.2233H198.797ZM198.797 23.3686V15.5139H206.644V23.3686H198.797ZM198.797 15.5139V7.85467H206.644V15.5139H198.797Z" fill="#352B52"/>
<path d="M339.462 70.2231V62.5638H347.153V70.2231H339.462ZM339.462 62.5638V54.7091H347.153V62.5638H339.462ZM339.462 54.7091V46.8935H347.153V54.7091H339.462ZM339.462 46.8935V39.0389H347.153V46.8935H339.462ZM339.462 39.0389V31.2233H347.153V39.0389H339.462ZM339.462 31.2233V23.3686H347.153V31.2233H339.462ZM339.462 23.3686V15.5139H347.153V23.3686H339.462ZM339.462 70.2231V77.9605H331.653V70.2231H339.462ZM331.653 70.2231V62.5638H339.462V70.2231H331.653ZM331.653 62.5638V54.7091H339.462V62.5638H331.653ZM331.653 54.7091V46.8935H339.462V54.7091H331.653ZM331.653 46.8935V39.0389H339.462V46.8935H331.653ZM331.653 39.0389V31.2233H339.462V39.0389H331.653ZM331.653 31.2233V23.3686H339.462V31.2233H331.653ZM331.653 23.3686V15.5139H339.462V23.3686H331.653ZM331.653 15.5139V7.85467H339.462V15.5139H331.653ZM323.806 7.85467V0H331.653V7.85467H323.806ZM331.653 70.2231V77.9605H323.806V70.2231H331.653ZM323.806 70.2231V62.5638H331.653V70.2231H323.806ZM323.806 62.5638V54.7091H331.653V62.5638H323.806ZM323.806 39.0389V31.2233H331.653V39.0389H323.806ZM323.806 31.2233V23.3686H331.653V31.2233H323.806ZM323.806 15.5139V7.85467H331.653V15.5139H323.806ZM315.998 7.85467V0H323.806V7.85467H315.998ZM323.806 70.2231V77.9605H315.998V70.2231H323.806ZM315.998 70.2231V62.5638H323.806V70.2231H315.998ZM315.998 31.2233V23.3686H323.806V31.2233H315.998ZM308.151 7.85467V0H315.998V7.85467H308.151ZM315.998 70.2231V77.9605H308.151V70.2231H315.998ZM308.151 70.2231V62.5638H315.998V70.2231H308.151ZM308.151 54.7091V46.8935H315.998V54.7091H308.151ZM308.151 46.8935V39.0389H315.998V46.8935H308.151ZM308.151 31.2233V23.3686H315.998V31.2233H308.151ZM308.151 23.3686V15.5139H315.998V23.3686H308.151ZM300.304 7.85467V0H308.151V7.85467H300.304ZM308.151 70.2231V77.9605H300.304V70.2231H308.151ZM300.304 70.2231V62.5638H308.151V70.2231H300.304ZM300.304 54.7091V46.8935H308.151V54.7091H300.304ZM300.304 46.8935V39.0389H308.151V46.8935H300.304ZM300.304 31.2233V23.3686H308.151V31.2233H300.304ZM300.304 23.3686V15.5139H308.151V23.3686H300.304ZM292.651 7.85467V0H300.304V7.85467H292.651ZM300.304 70.2231V77.9605H292.651V70.2231H300.304ZM292.651 70.2231V62.5638H300.304V70.2231H292.651ZM292.651 54.7091V46.8935H300.304V54.7091H292.651ZM292.651 46.8935V39.0389H300.304V46.8935H292.651ZM292.651 31.2233V23.3686H300.304V31.2233H292.651ZM292.651 23.3686V15.5139H300.304V23.3686H292.651ZM284.804 7.85467V0H292.651V7.85467H284.804ZM292.651 70.2231V77.9605H284.804V70.2231H292.651ZM284.804 70.2231V62.5638H292.651V70.2231H284.804ZM284.804 46.8935V39.0389H292.651V46.8935H284.804ZM276.996 7.85467V0H284.804V7.85467H276.996ZM276.996 70.2231V62.5638H284.804V70.2231H276.996ZM276.996 62.5638V54.7091H284.804V62.5638H276.996ZM276.996 46.8935V39.0389H284.804V46.8935H276.996ZM276.996 39.0389V31.2233H284.804V39.0389H276.996ZM276.996 15.5139V7.85467H284.804V15.5139H276.996ZM269.149 62.5638V54.7091H276.996V62.5638H269.149ZM269.149 54.7091V46.8935H276.996V54.7091H269.149ZM269.149 46.8935V39.0389H276.996V46.8935H269.149ZM269.149 39.0389V31.2233H276.996V39.0389H269.149ZM269.149 31.2233V23.3686H276.996V31.2233H269.149ZM269.149 23.3686V15.5139H276.996V23.3686H269.149ZM269.149 15.5139V7.85467H276.996V15.5139H269.149Z" fill="#352B52"/>
<path d="M409.814 70.2231V62.5638H417.505V70.2231H409.814ZM409.814 62.5638V54.7091H417.505V62.5638H409.814ZM409.814 54.7091V46.8935H417.505V54.7091H409.814ZM409.814 46.8935V39.0389H417.505V46.8935H409.814ZM409.814 39.0389V31.2233H417.505V39.0389H409.814ZM409.814 31.2233V23.3686H417.505V31.2233H409.814ZM409.814 23.3686V15.5139H417.505V23.3686H409.814ZM409.814 70.2231V77.9605H402.005V70.2231H409.814ZM402.005 70.2231V62.5638H409.814V70.2231H402.005ZM402.005 62.5638V54.7091H409.814V62.5638H402.005ZM402.005 54.7091V46.8935H409.814V54.7091H402.005ZM402.005 46.8935V39.0389H409.814V46.8935H402.005ZM402.005 39.0389V31.2233H409.814V39.0389H402.005ZM402.005 31.2233V23.3686H409.814V31.2233H402.005ZM402.005 23.3686V15.5139H409.814V23.3686H402.005ZM402.005 15.5139V7.85467H409.814V15.5139H402.005ZM394.158 7.85467V0H402.005V7.85467H394.158ZM402.005 70.2231V77.9605H394.158V70.2231H402.005ZM394.158 70.2231V62.5638H402.005V70.2231H394.158ZM394.158 62.5638V54.7091H402.005V62.5638H394.158ZM394.158 15.5139V7.85467H402.005V15.5139H394.158ZM386.35 7.85467V0H394.158V7.85467H386.35ZM394.158 70.2231V77.9605H386.35V70.2231H394.158ZM386.35 70.2231V62.5638H394.158V70.2231H386.35ZM378.503 7.85467V0H386.35V7.85467H378.503ZM386.35 70.2231V77.9605H378.503V70.2231H386.35ZM378.503 70.2231V62.5638H386.35V70.2231H378.503ZM378.503 54.7091V46.8935H386.35V54.7091H378.503ZM378.503 46.8935V39.0389H386.35V46.8935H378.503ZM378.503 39.0389V31.2233H386.35V39.0389H378.503ZM378.503 31.2233V23.3686H386.35V31.2233H378.503ZM378.503 23.3686V15.5139H386.35V23.3686H378.503ZM370.655 7.85467V0H378.503V7.85467H370.655ZM378.503 70.2231V77.9605H370.655V70.2231H378.503ZM370.655 70.2231V62.5638H378.503V70.2231H370.655ZM370.655 54.7091V46.8935H378.503V54.7091H370.655ZM370.655 46.8935V39.0389H378.503V46.8935H370.655ZM370.655 39.0389V31.2233H378.503V39.0389H370.655ZM370.655 31.2233V23.3686H378.503V31.2233H370.655ZM370.655 23.3686V15.5139H378.503V23.3686H370.655ZM363.003 7.85467V0H370.655V7.85467H363.003ZM370.655 70.2231V77.9605H363.003V70.2231H370.655ZM363.003 70.2231V62.5638H370.655V70.2231H363.003ZM363.003 54.7091V46.8935H370.655V54.7091H363.003ZM363.003 46.8935V39.0389H370.655V46.8935H363.003ZM363.003 39.0389V31.2233H370.655V39.0389H363.003ZM363.003 31.2233V23.3686H370.655V31.2233H363.003ZM363.003 23.3686V15.5139H370.655V23.3686H363.003ZM355.156 7.85467V0H363.003V7.85467H355.156ZM363.003 70.2231V77.9605H355.156V70.2231H363.003ZM355.156 70.2231V62.5638H363.003V70.2231H355.156ZM347.348 7.85467V0H355.156V7.85467H347.348ZM347.348 70.2231V62.5638H355.156V70.2231H347.348ZM347.348 62.5638V54.7091H355.156V62.5638H347.348ZM347.348 15.5139V7.85467H355.156V15.5139H347.348ZM339.501 62.5638V54.7091H347.348V62.5638H339.501ZM339.501 54.7091V46.8935H347.348V54.7091H339.501ZM339.501 46.8935V39.0389H347.348V46.8935H339.501ZM339.501 39.0389V31.2233H347.348V39.0389H339.501ZM339.501 31.2233V23.3686H347.348V31.2233H339.501ZM339.501 23.3686V15.5139H347.348V23.3686H339.501ZM339.501 15.5139V7.85467H347.348V15.5139H339.501Z" fill="#352B52"/>
<path d="M480.166 70.2231V62.5638H487.857V70.2231H480.166ZM480.166 62.5638V54.7091H487.857V62.5638H480.166ZM480.166 54.7091V46.8935H487.857V54.7091H480.166ZM480.166 39.0389V31.2233H487.857V39.0389H480.166ZM480.166 31.2233V23.3686H487.857V31.2233H480.166ZM480.166 23.3686V15.5139H487.857V23.3686H480.166ZM480.166 70.2231V77.9605H472.357V70.2231H480.166ZM472.357 70.2231V62.5638H480.166V70.2231H472.357ZM472.357 62.5638V54.7091H480.166V62.5638H472.357ZM472.357 54.7091V46.8935H480.166V54.7091H472.357ZM472.357 46.8935V39.0389H480.166V46.8935H472.357ZM472.357 39.0389V31.2233H480.166V39.0389H472.357ZM472.357 31.2233V23.3686H480.166V31.2233H472.357ZM472.357 23.3686V15.5139H480.166V23.3686H472.357ZM472.357 15.5139V7.85467H480.166V15.5139H472.357ZM464.51 7.85467V0H472.357V7.85467H464.51ZM472.357 70.2231V77.9605H464.51V70.2231H472.357ZM464.51 70.2231V62.5638H472.357V70.2231H464.51ZM464.51 62.5638V54.7091H472.357V62.5638H464.51ZM464.51 46.8935V39.0389H472.357V46.8935H464.51ZM464.51 39.0389V31.2233H472.357V39.0389H464.51ZM464.51 31.2233V23.3686H472.357V31.2233H464.51ZM464.51 15.5139V7.85467H472.357V15.5139H464.51ZM456.702 7.85467V0H464.51V7.85467H456.702ZM464.51 70.2231V77.9605H456.702V70.2231H464.51ZM456.702 70.2231V62.5638H464.51V70.2231H456.702ZM456.702 46.8935V39.0389H464.51V46.8935H456.702ZM456.702 39.0389V31.2233H464.51V39.0389H456.702ZM456.702 31.2233V23.3686H464.51V31.2233H456.702ZM448.855 7.85467V0H456.702V7.85467H448.855ZM456.702 70.2231V77.9605H448.855V70.2231H456.702ZM448.855 70.2231V62.5638H456.702V70.2231H448.855ZM448.855 54.7091V46.8935H456.702V54.7091H448.855ZM448.855 46.8935V39.0389H456.702V46.8935H448.855ZM448.855 39.0389V31.2233H456.702V39.0389H448.855ZM448.855 31.2233V23.3686H456.702V31.2233H448.855ZM448.855 23.3686V15.5139H456.702V23.3686H448.855ZM441.007 7.85467V0H448.855V7.85467H441.007ZM448.855 70.2231V77.9605H441.007V70.2231H448.855ZM441.007 70.2231V62.5638H448.855V70.2231H441.007ZM441.007 54.7091V46.8935H448.855V54.7091H441.007ZM441.007 46.8935V39.0389H448.855V46.8935H441.007ZM441.007 39.0389V31.2233H448.855V39.0389H441.007ZM441.007 31.2233V23.3686H448.855V31.2233H441.007ZM441.007 23.3686V15.5139H448.855V23.3686H441.007ZM433.355 7.85467V0H441.007V7.85467H433.355ZM441.007 70.2231V77.9605H433.355V70.2231H441.007ZM433.355 70.2231V62.5638H441.007V70.2231H433.355ZM433.355 54.7091V46.8935H441.007V54.7091H433.355ZM433.355 46.8935V39.0389H441.007V46.8935H433.355ZM433.355 39.0389V31.2233H441.007V39.0389H433.355ZM433.355 31.2233V23.3686H441.007V31.2233H433.355ZM433.355 23.3686V15.5139H441.007V23.3686H433.355ZM425.508 7.85467V0H433.355V7.85467H425.508ZM433.355 70.2231V77.9605H425.508V70.2231H433.355ZM425.508 70.2231V62.5638H433.355V70.2231H425.508ZM417.7 7.85467V0H425.508V7.85467H417.7ZM417.7 70.2231V62.5638H425.508V70.2231H417.7ZM417.7 62.5638V54.7091H425.508V62.5638H417.7ZM417.7 15.5139V7.85467H425.508V15.5139H417.7ZM409.853 62.5638V54.7091H417.7V62.5638H409.853ZM409.853 54.7091V46.8935H417.7V54.7091H409.853ZM409.853 46.8935V39.0389H417.7V46.8935H409.853ZM409.853 39.0389V31.2233H417.7V39.0389H409.853ZM409.853 31.2233V23.3686H417.7V31.2233H409.853ZM409.853 23.3686V15.5139H417.7V23.3686H409.853ZM409.853 15.5139V7.85467H417.7V15.5139H409.853Z" fill="#352B52"/>
<path d="M519.207 70.2231V77.9605H511.359V70.2231H519.207ZM511.359 70.2231V62.5638H519.207V70.2231H511.359ZM511.359 62.5638V54.7091H519.207V62.5638H511.359ZM511.359 54.7091V46.8935H519.207V54.7091H511.359ZM511.359 46.8935V39.0389H519.207V46.8935H511.359ZM511.359 39.0389V31.2233H519.207V39.0389H511.359ZM511.359 31.2233V23.3686H519.207V31.2233H511.359ZM511.359 23.3686V15.5139H519.207V23.3686H511.359ZM511.359 15.5139V7.85467H519.207V15.5139H511.359ZM503.707 7.85467V0H511.359V7.85467H503.707ZM511.359 70.2231V77.9605H503.707V70.2231H511.359ZM503.707 70.2231V62.5638H511.359V70.2231H503.707ZM503.707 62.5638V54.7091H511.359V62.5638H503.707ZM503.707 54.7091V46.8935H511.359V54.7091H503.707ZM503.707 46.8935V39.0389H511.359V46.8935H503.707ZM503.707 39.0389V31.2233H511.359V39.0389H503.707ZM503.707 31.2233V23.3686H511.359V31.2233H503.707ZM503.707 23.3686V15.5139H511.359V23.3686H503.707ZM503.707 15.5139V7.85467H511.359V15.5139H503.707ZM495.86 7.85467V0H503.707V7.85467H495.86ZM503.707 70.2231V77.9605H495.86V70.2231H503.707ZM495.86 70.2231V62.5638H503.707V70.2231H495.86ZM488.052 7.85467V0H495.86V7.85467H488.052ZM495.86 70.2231V77.9605H488.052V70.2231H495.86ZM488.052 70.2231V62.5638H495.86V70.2231H488.052ZM480.205 7.85467V0H488.052V7.85467H480.205ZM480.205 70.2231V62.5638H488.052V70.2231H480.205ZM480.205 62.5638V54.7091H488.052V62.5638H480.205ZM480.205 54.7091V46.8935H488.052V54.7091H480.205ZM480.205 46.8935V39.0389H488.052V46.8935H480.205ZM480.205 39.0389V31.2233H488.052V39.0389H480.205ZM480.205 31.2233V23.3686H488.052V31.2233H480.205ZM480.205 23.3686V15.5139H488.052V23.3686H480.205ZM480.205 15.5139V7.85467H488.052V15.5139H480.205Z" fill="#352B52"/>
<path d="M589.363 70.2231V77.9605H581.672V70.2231H589.363ZM581.672 70.2231V62.5638H589.363V70.2231H581.672ZM581.672 62.5638V54.7091H589.363V62.5638H581.672ZM581.672 54.7091V46.8935H589.363V54.7091H581.672ZM581.672 46.8935V39.0389H589.363V46.8935H581.672ZM581.672 39.0389V31.2233H589.363V39.0389H581.672ZM581.672 31.2233V23.3686H589.363V31.2233H581.672ZM581.672 23.3686V15.5139H589.363V23.3686H581.672ZM581.672 70.2231V77.9605H573.864V70.2231H581.672ZM573.864 70.2231V62.5638H581.672V70.2231H573.864ZM573.864 62.5638V54.7091H581.672V62.5638H573.864ZM573.864 54.7091V46.8935H581.672V54.7091H573.864ZM573.864 46.8935V39.0389H581.672V46.8935H573.864ZM573.864 39.0389V31.2233H581.672V39.0389H573.864ZM573.864 31.2233V23.3686H581.672V31.2233H573.864ZM573.864 23.3686V15.5139H581.672V23.3686H573.864ZM573.864 15.5139V7.85467H581.672V15.5139H573.864ZM566.017 7.85467V0H573.864V7.85467H566.017ZM573.864 70.2231V77.9605H566.017V70.2231H573.864ZM566.017 70.2231V62.5638H573.864V70.2231H566.017ZM566.017 15.5139V7.85467H573.864V15.5139H566.017ZM558.208 7.85467V0H566.017V7.85467H558.208ZM566.017 70.2231V77.9605H558.208V70.2231H566.017ZM558.208 70.2231V62.5638H566.017V70.2231H558.208ZM550.361 7.85467V0H558.208V7.85467H550.361ZM550.361 70.2231V62.5638H558.208V70.2231H550.361ZM550.361 62.5638V54.7091H558.208V62.5638H550.361ZM550.361 54.7091V46.8935H558.208V54.7091H550.361ZM550.361 39.0389V31.2233H558.208V39.0389H550.361ZM550.361 31.2233V23.3686H558.208V31.2233H550.361ZM550.361 23.3686V15.5139H558.208V23.3686H550.361ZM542.514 7.85467V0H550.361V7.85467H542.514ZM550.361 70.2231V77.9605H542.514V70.2231H550.361ZM542.514 70.2231V62.5638H550.361V70.2231H542.514ZM542.514 62.5638V54.7091H550.361V62.5638H542.514ZM542.514 54.7091V46.8935H550.361V54.7091H542.514ZM542.514 39.0389V31.2233H550.361V39.0389H542.514ZM542.514 31.2233V23.3686H550.361V31.2233H542.514ZM542.514 23.3686V15.5139H550.361V23.3686H542.514ZM534.862 7.85467V0H542.514V7.85467H534.862ZM542.514 70.2231V77.9605H534.862V70.2231H542.514ZM534.862 70.2231V62.5638H542.514V70.2231H534.862ZM534.862 62.5638V54.7091H542.514V62.5638H534.862ZM534.862 54.7091V46.8935H542.514V54.7091H534.862ZM534.862 39.0389V31.2233H542.514V39.0389H534.862ZM534.862 31.2233V23.3686H542.514V31.2233H534.862ZM534.862 23.3686V15.5139H542.514V23.3686H534.862ZM527.015 7.85467V0H534.862V7.85467H527.015ZM534.862 70.2231V77.9605H527.015V70.2231H534.862ZM527.015 70.2231V62.5638H534.862V70.2231H527.015ZM519.207 7.85467V0H527.015V7.85467H519.207ZM527.015 70.2231V77.9605H519.207V70.2231H527.015ZM519.207 70.2231V62.5638H527.015V70.2231H519.207ZM519.207 15.5139V7.85467H527.015V15.5139H519.207ZM511.359 70.2231V62.5638H519.207V70.2231H511.359ZM511.359 62.5638V54.7091H519.207V62.5638H511.359ZM511.359 54.7091V46.8935H519.207V54.7091H511.359ZM511.359 46.8935V39.0389H519.207V46.8935H511.359ZM511.359 39.0389V31.2233H519.207V39.0389H511.359ZM511.359 31.2233V23.3686H519.207V31.2233H511.359ZM511.359 23.3686V15.5139H519.207V23.3686H511.359ZM511.359 15.5139V7.85467H519.207V15.5139H511.359Z" fill="#352B52"/>
<path d="M652.024 70.2231V77.9605H644.216V70.2231H652.024ZM644.216 70.2231V62.5638H652.024V70.2231H644.216ZM644.216 62.5638V54.7091H652.024V62.5638H644.216ZM644.216 70.2231V77.9605H636.369V70.2231H644.216ZM636.369 70.2231V62.5638H644.216V70.2231H636.369ZM636.369 62.5638V54.7091H644.216V62.5638H636.369ZM636.369 54.7091V46.8935H644.216V54.7091H636.369ZM636.369 70.2231V77.9605H628.56V70.2231H636.369ZM628.56 70.2231V62.5638H636.369V70.2231H628.56ZM628.56 54.7091V46.8935H636.369V54.7091H628.56ZM628.56 70.2231V77.9605H620.713V70.2231H628.56ZM620.713 70.2231V62.5638H628.56V70.2231H620.713ZM620.713 54.7091V46.8935H628.56V54.7091H620.713ZM620.713 70.2231V77.9605H612.866V70.2231H620.713ZM612.866 70.2231V62.5638H620.713V70.2231H612.866ZM612.866 54.7091V46.8935H620.713V54.7091H612.866ZM612.866 46.8935V39.0389H620.713V46.8935H612.866ZM612.866 39.0389V31.2233H620.713V39.0389H612.866ZM612.866 31.2233V23.3686H620.713V31.2233H612.866ZM612.866 23.3686V15.5139H620.713V23.3686H612.866ZM612.866 15.5139V7.85467H620.713V15.5139H612.866ZM605.214 7.85467V0H612.866V7.85467H605.214ZM612.866 70.2231V77.9605H605.214V70.2231H612.866ZM605.214 70.2231V62.5638H612.866V70.2231H605.214ZM605.214 54.7091V46.8935H612.866V54.7091H605.214ZM605.214 46.8935V39.0389H612.866V46.8935H605.214ZM605.214 39.0389V31.2233H612.866V39.0389H605.214ZM605.214 31.2233V23.3686H612.866V31.2233H605.214ZM605.214 23.3686V15.5139H612.866V23.3686H605.214ZM605.214 15.5139V7.85467H612.866V15.5139H605.214ZM597.367 7.85467V0H605.214V7.85467H597.367ZM605.214 70.2231V77.9605H597.367V70.2231H605.214ZM597.367 70.2231V62.5638H605.214V70.2231H597.367ZM589.558 7.85467V0H597.367V7.85467H589.558ZM597.367 70.2231V77.9605H589.558V70.2231H597.367ZM589.558 70.2231V62.5638H597.367V70.2231H589.558ZM581.711 7.85467V0H589.558V7.85467H581.711ZM581.711 70.2231V62.5638H589.558V70.2231H581.711ZM581.711 62.5638V54.7091H589.558V62.5638H581.711ZM581.711 54.7091V46.8935H589.558V54.7091H581.711ZM581.711 46.8935V39.0389H589.558V46.8935H581.711ZM581.711 39.0389V31.2233H589.558V39.0389H581.711ZM581.711 31.2233V23.3686H589.558V31.2233H581.711ZM581.711 23.3686V15.5139H589.558V23.3686H581.711ZM581.711 15.5139V7.85467H589.558V15.5139H581.711Z" fill="#352B52"/>
<path d="M62.5047 131.263V123.408H70.3129V131.263H62.5047ZM62.5047 123.408V115.553H70.3129V123.408H62.5047ZM62.5047 115.553V107.894H70.3129V115.553H62.5047ZM54.6574 107.894V100.04H62.5047V107.894H54.6574ZM54.6574 131.263V123.408H62.5047V131.263H54.6574ZM54.6574 123.408V115.553H62.5047V123.408H54.6574ZM54.6574 115.553V107.894H62.5047V115.553H54.6574ZM46.8492 107.894V100.04H54.6574V107.894H46.8492ZM54.6574 170.263V178H46.8492V170.263H54.6574ZM46.8492 170.263V162.603H54.6574V170.263H46.8492ZM46.8492 162.603V154.749H54.6574V162.603H46.8492ZM46.8492 154.749V146.933H54.6574V154.749H46.8492ZM46.8492 146.933V139.078H54.6574V146.933H46.8492ZM46.8492 139.078V131.263H54.6574V139.078H46.8492ZM46.8492 131.263V123.408H54.6574V131.263H46.8492ZM46.8492 123.408V115.553H54.6574V123.408H46.8492ZM39.002 107.894V100.04H46.8492V107.894H39.002ZM46.8492 170.263V178H39.002V170.263H46.8492ZM39.002 170.263V162.603H46.8492V170.263H39.002ZM39.002 162.603V154.749H46.8492V162.603H39.002ZM39.002 154.749V146.933H46.8492V154.749H39.002ZM39.002 146.933V139.078H46.8492V146.933H39.002ZM39.002 139.078V131.263H46.8492V139.078H39.002ZM39.002 131.263V123.408H46.8492V131.263H39.002ZM39.002 123.408V115.553H46.8492V123.408H39.002ZM31.1547 107.894V100.04H39.002V107.894H31.1547ZM39.002 170.263V178H31.1547V170.263H39.002ZM31.1547 170.263V162.603H39.002V170.263H31.1547ZM23.5027 107.894V100.04H31.1547V107.894H23.5027ZM31.1547 170.263V178H23.5027V170.263H31.1547ZM23.5027 170.263V162.603H31.1547V170.263H23.5027ZM15.6554 107.894V100.04H23.5027V107.894H15.6554ZM15.6554 170.263V162.603H23.5027V170.263H15.6554ZM15.6554 162.603V154.749H23.5027V162.603H15.6554ZM15.6554 154.749V146.933H23.5027V154.749H15.6554ZM15.6554 146.933V139.078H23.5027V146.933H15.6554ZM15.6554 139.078V131.263H23.5027V139.078H15.6554ZM15.6554 131.263V123.408H23.5027V131.263H15.6554ZM15.6554 123.408V115.553H23.5027V123.408H15.6554ZM7.84725 107.894V100.04H15.6554V107.894H7.84725ZM7.84725 123.408V115.553H15.6554V123.408H7.84725ZM0 107.894V100.04H7.84725V107.894H0ZM0 123.408V115.553H7.84725V123.408H0ZM0 115.553V107.894H7.84725V115.553H0Z" fill="#352B52"/>
<path d="M140.548 170.263V178H132.857V170.263H140.548ZM132.857 170.263V162.603H140.548V170.263H132.857ZM132.857 162.603V154.749H140.548V162.603H132.857ZM132.857 131.263V123.408H140.548V131.263H132.857ZM132.857 123.408V115.553H140.548V123.408H132.857ZM132.857 115.553V107.894H140.548V115.553H132.857ZM125.048 107.894V100.04H132.857V107.894H125.048ZM132.857 170.263V178H125.048V170.263H132.857ZM125.048 170.263V162.603H132.857V170.263H125.048ZM125.048 162.603V154.749H132.857V162.603H125.048ZM125.048 154.749V146.933H132.857V154.749H125.048ZM125.048 146.933V139.078H132.857V146.933H125.048ZM125.048 139.078V131.263H132.857V139.078H125.048ZM125.048 131.263V123.408H132.857V131.263H125.048ZM125.048 123.408V115.553H132.857V123.408H125.048ZM125.048 115.553V107.894H132.857V115.553H125.048ZM117.201 107.894V100.04H125.048V107.894H117.201ZM125.048 170.263V178H117.201V170.263H125.048ZM117.201 170.263V162.603H125.048V170.263H117.201ZM117.201 154.749V146.933H125.048V154.749H117.201ZM117.201 146.933V139.078H125.048V146.933H117.201ZM117.201 139.078V131.263H125.048V139.078H117.201ZM117.201 131.263V123.408H125.048V131.263H117.201ZM117.201 123.408V115.553H125.048V123.408H117.201ZM109.393 107.894V100.04H117.201V107.894H109.393ZM117.201 170.263V178H109.393V170.263H117.201ZM109.393 170.263V162.603H117.201V170.263H109.393ZM109.393 154.749V146.933H117.201V154.749H109.393ZM109.393 146.933V139.078H117.201V146.933H109.393ZM109.393 131.263V123.408H117.201V131.263H109.393ZM109.393 123.408V115.553H117.201V123.408H109.393ZM101.546 107.894V100.04H109.393V107.894H101.546ZM109.393 170.263V178H101.546V170.263H109.393ZM101.546 170.263V162.603H109.393V170.263H101.546ZM101.546 154.749V146.933H109.393V154.749H101.546ZM101.546 146.933V139.078H109.393V146.933H101.546ZM101.546 131.263V123.408H109.393V131.263H101.546ZM101.546 123.408V115.553H109.393V123.408H101.546ZM93.6984 107.894V100.04H101.546V107.894H93.6984ZM101.546 170.263V178H93.6984V170.263H101.546ZM93.6984 170.263V162.603H101.546V170.263H93.6984ZM93.6984 154.749V146.933H101.546V154.749H93.6984ZM93.6984 146.933V139.078H101.546V146.933H93.6984ZM93.6984 131.263V123.408H101.546V131.263H93.6984ZM93.6984 123.408V115.553H101.546V123.408H93.6984ZM86.0464 107.894V100.04H93.6984V107.894H86.0464ZM93.6984 170.263V178H86.0464V170.263H93.6984ZM86.0464 170.263V162.603H93.6984V170.263H86.0464ZM86.0464 154.749V146.933H93.6984V154.749H86.0464ZM86.0464 146.933V139.078H93.6984V146.933H86.0464ZM86.0464 131.263V123.408H93.6984V131.263H86.0464ZM86.0464 123.408V115.553H93.6984V123.408H86.0464ZM78.1992 107.894V100.04H86.0464V107.894H78.1992ZM86.0464 170.263V178H78.1992V170.263H86.0464ZM78.1992 170.263V162.603H86.0464V170.263H78.1992ZM70.391 107.894V100.04H78.1992V107.894H70.391ZM78.1992 170.263V178H70.391V170.263H78.1992ZM70.391 170.263V162.603H78.1992V170.263H70.391ZM62.5437 107.894V100.04H70.391V107.894H62.5437ZM62.5437 170.263V162.603H70.391V170.263H62.5437ZM62.5437 162.603V154.749H70.391V162.603H62.5437ZM62.5437 154.749V146.933H70.391V154.749H62.5437ZM62.5437 146.933V139.078H70.391V146.933H62.5437ZM62.5437 139.078V131.263H70.391V139.078H62.5437ZM62.5437 131.263V123.408H70.391V131.263H62.5437ZM62.5437 123.408V115.553H70.391V123.408H62.5437ZM62.5437 115.553V107.894H70.391V115.553H62.5437Z" fill="#352B52"/>
<path d="M203.209 170.263V162.603H210.9V170.263H203.209ZM203.209 162.603V154.749H210.9V162.603H203.209ZM203.209 154.749V146.933H210.9V154.749H203.209ZM203.209 139.078V131.263H210.9V139.078H203.209ZM203.209 131.263V123.408H210.9V131.263H203.209ZM203.209 123.408V115.553H210.9V123.408H203.209ZM203.209 170.263V178H195.4V170.263H203.209ZM195.4 170.263V162.603H203.209V170.263H195.4ZM195.4 162.603V154.749H203.209V162.603H195.4ZM195.4 154.749V146.933H203.209V154.749H195.4ZM195.4 146.933V139.078H203.209V146.933H195.4ZM195.4 139.078V131.263H203.209V139.078H195.4ZM195.4 131.263V123.408H203.209V131.263H195.4ZM195.4 123.408V115.553H203.209V123.408H195.4ZM195.4 115.553V107.894H203.209V115.553H195.4ZM187.553 107.894V100.04H195.4V107.894H187.553ZM195.4 170.263V178H187.553V170.263H195.4ZM187.553 170.263V162.603H195.4V170.263H187.553ZM187.553 162.603V154.749H195.4V162.603H187.553ZM187.553 146.933V139.078H195.4V146.933H187.553ZM187.553 139.078V131.263H195.4V139.078H187.553ZM187.553 131.263V123.408H195.4V131.263H187.553ZM187.553 115.553V107.894H195.4V115.553H187.553ZM179.745 107.894V100.04H187.553V107.894H179.745ZM187.553 170.263V178H179.745V170.263H187.553ZM179.745 170.263V162.603H187.553V170.263H179.745ZM179.745 146.933V139.078H187.553V146.933H179.745ZM179.745 139.078V131.263H187.553V139.078H179.745ZM179.745 131.263V123.408H187.553V131.263H179.745ZM171.898 107.894V100.04H179.745V107.894H171.898ZM179.745 170.263V178H171.898V170.263H179.745ZM171.898 170.263V162.603H179.745V170.263H171.898ZM171.898 154.749V146.933H179.745V154.749H171.898ZM171.898 146.933V139.078H179.745V146.933H171.898ZM171.898 139.078V131.263H179.745V139.078H171.898ZM171.898 131.263V123.408H179.745V131.263H171.898ZM171.898 123.408V115.553H179.745V123.408H171.898ZM164.05 107.894V100.04H171.898V107.894H164.05ZM171.898 170.263V178H164.05V170.263H171.898ZM164.05 170.263V162.603H171.898V170.263H164.05ZM164.05 154.749V146.933H171.898V154.749H164.05ZM164.05 146.933V139.078H171.898V146.933H164.05ZM164.05 139.078V131.263H171.898V139.078H164.05ZM164.05 131.263V123.408H171.898V131.263H164.05ZM164.05 123.408V115.553H171.898V123.408H164.05ZM156.398 107.894V100.04H164.05V107.894H156.398ZM164.05 170.263V178H156.398V170.263H164.05ZM156.398 170.263V162.603H164.05V170.263H156.398ZM156.398 154.749V146.933H164.05V154.749H156.398ZM156.398 146.933V139.078H164.05V146.933H156.398ZM156.398 139.078V131.263H164.05V139.078H156.398ZM156.398 131.263V123.408H164.05V131.263H156.398ZM156.398 123.408V115.553H164.05V123.408H156.398ZM148.551 107.894V100.04H156.398V107.894H148.551ZM156.398 170.263V178H148.551V170.263H156.398ZM148.551 170.263V162.603H156.398V170.263H148.551ZM140.743 107.894V100.04H148.551V107.894H140.743ZM140.743 170.263V162.603H148.551V170.263H140.743ZM140.743 162.603V154.749H148.551V162.603H140.743ZM140.743 115.553V107.894H148.551V115.553H140.743ZM132.896 162.603V154.749H140.743V162.603H132.896ZM132.896 154.749V146.933H140.743V154.749H132.896ZM132.896 146.933V139.078H140.743V146.933H132.896ZM132.896 139.078V131.263H140.743V139.078H132.896ZM132.896 131.263V123.408H140.743V131.263H132.896ZM132.896 123.408V115.553H140.743V123.408H132.896ZM132.896 115.553V107.894H140.743V115.553H132.896Z" fill="#352B52"/>
<path d="M281.252 170.263V178H273.56V170.263H281.252ZM273.56 170.263V162.603H281.252V170.263H273.56ZM273.56 162.603V154.749H281.252V162.603H273.56ZM273.56 154.749V146.933H281.252V154.749H273.56ZM273.56 146.933V139.078H281.252V146.933H273.56ZM273.56 139.078V131.263H281.252V139.078H273.56ZM273.56 131.263V123.408H281.252V131.263H273.56ZM273.56 123.408V115.553H281.252V123.408H273.56ZM273.56 115.553V107.894H281.252V115.553H273.56ZM265.752 107.894V100.04H273.56V107.894H265.752ZM273.56 170.263V178H265.752V170.263H273.56ZM265.752 170.263V162.603H273.56V170.263H265.752ZM265.752 162.603V154.749H273.56V162.603H265.752ZM265.752 154.749V146.933H273.56V154.749H265.752ZM265.752 146.933V139.078H273.56V146.933H265.752ZM265.752 139.078V131.263H273.56V139.078H265.752ZM265.752 131.263V123.408H273.56V131.263H265.752ZM265.752 123.408V115.553H273.56V123.408H265.752ZM265.752 115.553V107.894H273.56V115.553H265.752ZM257.905 107.894V100.04H265.752V107.894H257.905ZM265.752 170.263V178H257.905V170.263H265.752ZM257.905 170.263V162.603H265.752V170.263H257.905ZM250.097 107.894V100.04H257.905V107.894H250.097ZM257.905 170.263V178H250.097V170.263H257.905ZM250.097 170.263V162.603H257.905V170.263H250.097ZM242.25 107.894V100.04H250.097V107.894H242.25ZM242.25 170.263V162.603H250.097V170.263H242.25ZM242.25 162.603V154.749H250.097V162.603H242.25ZM242.25 154.749V146.933H250.097V154.749H242.25ZM242.25 146.933V139.078H250.097V146.933H242.25ZM242.25 131.263V123.408H250.097V131.263H242.25ZM242.25 123.408V115.553H250.097V123.408H242.25ZM242.25 115.553V107.894H250.097V115.553H242.25ZM242.25 170.263V178H234.402V170.263H242.25ZM234.402 170.263V162.603H242.25V170.263H234.402ZM234.402 162.603V154.749H242.25V162.603H234.402ZM234.402 154.749V146.933H242.25V154.749H234.402ZM234.402 146.933V139.078H242.25V146.933H234.402ZM234.402 131.263V123.408H242.25V131.263H234.402ZM234.402 123.408V115.553H242.25V123.408H234.402ZM234.402 115.553V107.894H242.25V115.553H234.402ZM226.75 107.894V100.04H234.402V107.894H226.75ZM234.402 170.263V178H226.75V170.263H234.402ZM226.75 170.263V162.603H234.402V170.263H226.75ZM226.75 162.603V154.749H234.402V162.603H226.75ZM226.75 154.749V146.933H234.402V154.749H226.75ZM226.75 146.933V139.078H234.402V146.933H226.75ZM226.75 131.263V123.408H234.402V131.263H226.75ZM226.75 123.408V115.553H234.402V123.408H226.75ZM226.75 115.553V107.894H234.402V115.553H226.75ZM218.903 107.894V100.04H226.75V107.894H218.903ZM226.75 170.263V178H218.903V170.263H226.75ZM218.903 170.263V162.603H226.75V170.263H218.903ZM211.095 107.894V100.04H218.903V107.894H211.095ZM218.903 170.263V178H211.095V170.263H218.903ZM211.095 170.263V162.603H218.903V170.263H211.095ZM203.248 107.894V100.04H211.095V107.894H203.248ZM203.248 170.263V162.603H211.095V170.263H203.248ZM203.248 162.603V154.749H211.095V162.603H203.248ZM203.248 154.749V146.933H211.095V154.749H203.248ZM203.248 146.933V139.078H211.095V146.933H203.248ZM203.248 139.078V131.263H211.095V139.078H203.248ZM203.248 131.263V123.408H211.095V131.263H203.248ZM203.248 123.408V115.553H211.095V123.408H203.248ZM203.248 115.553V107.894H211.095V115.553H203.248Z" fill="#352B52"/>
<path d="M366.166 170.263V162.603H373.857V170.263H366.166ZM366.166 162.603V154.749H373.857V162.603H366.166ZM366.166 154.749V146.933H373.857V154.749H366.166ZM366.166 139.078V131.263H373.857V139.078H366.166ZM366.166 131.263V123.408H373.857V131.263H366.166ZM366.166 123.408V115.553H373.857V123.408H366.166ZM366.166 170.263V178H358.358V170.263H366.166ZM358.358 170.263V162.603H366.166V170.263H358.358ZM358.358 162.603V154.749H366.166V162.603H358.358ZM358.358 154.749V146.933H366.166V154.749H358.358ZM358.358 146.933V139.078H366.166V146.933H358.358ZM358.358 139.078V131.263H366.166V139.078H358.358ZM358.358 131.263V123.408H366.166V131.263H358.358ZM358.358 123.408V115.553H366.166V123.408H358.358ZM358.358 115.553V107.894H366.166V115.553H358.358ZM350.51 107.894V100.04H358.358V107.894H350.51ZM358.358 170.263V178H350.51V170.263H358.358ZM350.51 170.263V162.603H358.358V170.263H350.51ZM350.51 162.603V154.749H358.358V162.603H350.51ZM350.51 146.933V139.078H358.358V146.933H350.51ZM350.51 139.078V131.263H358.358V139.078H350.51ZM350.51 131.263V123.408H358.358V131.263H350.51ZM350.51 115.553V107.894H358.358V115.553H350.51ZM342.702 107.894V100.04H350.51V107.894H342.702ZM350.51 170.263V178H342.702V170.263H350.51ZM342.702 170.263V162.603H350.51V170.263H342.702ZM342.702 146.933V139.078H350.51V146.933H342.702ZM342.702 139.078V131.263H350.51V139.078H342.702ZM342.702 131.263V123.408H350.51V131.263H342.702ZM334.855 107.894V100.04H342.702V107.894H334.855ZM342.702 170.263V178H334.855V170.263H342.702ZM334.855 170.263V162.603H342.702V170.263H334.855ZM334.855 154.749V146.933H342.702V154.749H334.855ZM334.855 146.933V139.078H342.702V146.933H334.855ZM334.855 139.078V131.263H342.702V139.078H334.855ZM334.855 131.263V123.408H342.702V131.263H334.855ZM334.855 123.408V115.553H342.702V123.408H334.855ZM327.008 107.894V100.04H334.855V107.894H327.008ZM334.855 170.263V178H327.008V170.263H334.855ZM327.008 170.263V162.603H334.855V170.263H327.008ZM327.008 154.749V146.933H334.855V154.749H327.008ZM327.008 146.933V139.078H334.855V146.933H327.008ZM327.008 139.078V131.263H334.855V139.078H327.008ZM327.008 131.263V123.408H334.855V131.263H327.008ZM327.008 123.408V115.553H334.855V123.408H327.008ZM319.356 107.894V100.04H327.008V107.894H319.356ZM327.008 170.263V178H319.356V170.263H327.008ZM319.356 170.263V162.603H327.008V170.263H319.356ZM319.356 154.749V146.933H327.008V154.749H319.356ZM319.356 146.933V139.078H327.008V146.933H319.356ZM319.356 139.078V131.263H327.008V139.078H319.356ZM319.356 131.263V123.408H327.008V131.263H319.356ZM319.356 123.408V115.553H327.008V123.408H319.356ZM311.508 107.894V100.04H319.356V107.894H311.508ZM319.356 170.263V178H311.508V170.263H319.356ZM311.508 170.263V162.603H319.356V170.263H311.508ZM303.7 107.894V100.04H311.508V107.894H303.7ZM303.7 170.263V162.603H311.508V170.263H303.7ZM303.7 162.603V154.749H311.508V162.603H303.7ZM303.7 115.553V107.894H311.508V115.553H303.7ZM295.853 162.603V154.749H303.7V162.603H295.853ZM295.853 154.749V146.933H303.7V154.749H295.853ZM295.853 146.933V139.078H303.7V146.933H295.853ZM295.853 139.078V131.263H303.7V139.078H295.853ZM295.853 131.263V123.408H303.7V131.263H295.853ZM295.853 123.408V115.553H303.7V123.408H295.853ZM295.853 115.553V107.894H303.7V115.553H295.853Z" fill="#352B52"/>
<path d="M436.518 170.263V162.603H444.209V170.263H436.518ZM436.518 162.603V154.749H444.209V162.603H436.518ZM436.518 154.749V146.933H444.209V154.749H436.518ZM436.518 146.933V139.078H444.209V146.933H436.518ZM436.518 139.078V131.263H444.209V139.078H436.518ZM436.518 131.263V123.408H444.209V131.263H436.518ZM436.518 123.408V115.553H444.209V123.408H436.518ZM436.518 170.263V178H428.709V170.263H436.518ZM428.709 170.263V162.603H436.518V170.263H428.709ZM428.709 162.603V154.749H436.518V162.603H428.709ZM428.709 154.749V146.933H436.518V154.749H428.709ZM428.709 146.933V139.078H436.518V146.933H428.709ZM428.709 139.078V131.263H436.518V139.078H428.709ZM428.709 131.263V123.408H436.518V131.263H428.709ZM428.709 123.408V115.553H436.518V123.408H428.709ZM428.709 115.553V107.894H436.518V115.553H428.709ZM420.862 107.894V100.04H428.709V107.894H420.862ZM428.709 170.263V178H420.862V170.263H428.709ZM420.862 170.263V162.603H428.709V170.263H420.862ZM420.862 162.603V154.749H428.709V162.603H420.862ZM420.862 115.553V107.894H428.709V115.553H420.862ZM413.054 107.894V100.04H420.862V107.894H413.054ZM420.862 170.263V178H413.054V170.263H420.862ZM413.054 170.263V162.603H420.862V170.263H413.054ZM405.207 107.894V100.04H413.054V107.894H405.207ZM413.054 170.263V178H405.207V170.263H413.054ZM405.207 170.263V162.603H413.054V170.263H405.207ZM405.207 154.749V146.933H413.054V154.749H405.207ZM405.207 146.933V139.078H413.054V146.933H405.207ZM405.207 139.078V131.263H413.054V139.078H405.207ZM405.207 131.263V123.408H413.054V131.263H405.207ZM405.207 123.408V115.553H413.054V123.408H405.207ZM397.36 107.894V100.04H405.207V107.894H397.36ZM405.207 170.263V178H397.36V170.263H405.207ZM397.36 170.263V162.603H405.207V170.263H397.36ZM397.36 154.749V146.933H405.207V154.749H397.36ZM397.36 146.933V139.078H405.207V146.933H397.36ZM397.36 139.078V131.263H405.207V139.078H397.36ZM397.36 131.263V123.408H405.207V131.263H397.36ZM397.36 123.408V115.553H405.207V123.408H397.36ZM389.707 107.894V100.04H397.36V107.894H389.707ZM397.36 170.263V178H389.707V170.263H397.36ZM389.707 170.263V162.603H397.36V170.263H389.707ZM389.707 154.749V146.933H397.36V154.749H389.707ZM389.707 146.933V139.078H397.36V146.933H389.707ZM389.707 139.078V131.263H397.36V139.078H389.707ZM389.707 131.263V123.408H397.36V131.263H389.707ZM389.707 123.408V115.553H397.36V123.408H389.707ZM381.86 107.894V100.04H389.707V107.894H381.86ZM389.707 170.263V178H381.86V170.263H389.707ZM381.86 170.263V162.603H389.707V170.263H381.86ZM374.052 107.894V100.04H381.86V107.894H374.052ZM374.052 170.263V162.603H381.86V170.263H374.052ZM374.052 162.603V154.749H381.86V162.603H374.052ZM374.052 115.553V107.894H381.86V115.553H374.052ZM366.205 162.603V154.749H374.052V162.603H366.205ZM366.205 154.749V146.933H374.052V154.749H366.205ZM366.205 146.933V139.078H374.052V146.933H366.205ZM366.205 139.078V131.263H374.052V139.078H366.205ZM366.205 131.263V123.408H374.052V131.263H366.205ZM366.205 123.408V115.553H374.052V123.408H366.205ZM366.205 115.553V107.894H374.052V115.553H366.205Z" fill="#352B52"/>
<path d="M506.87 170.263V178H499.061V170.263H506.87ZM499.061 170.263V162.603H506.87V170.263H499.061ZM499.061 162.603V154.749H506.87V162.603H499.061ZM499.061 170.263V178H491.214V170.263H499.061ZM491.214 170.263V162.603H499.061V170.263H491.214ZM491.214 162.603V154.749H499.061V162.603H491.214ZM491.214 154.749V146.933H499.061V154.749H491.214ZM491.214 170.263V178H483.406V170.263H491.214ZM483.406 170.263V162.603H491.214V170.263H483.406ZM483.406 154.749V146.933H491.214V154.749H483.406ZM483.406 170.263V178H475.559V170.263H483.406ZM475.559 170.263V162.603H483.406V170.263H475.559ZM475.559 154.749V146.933H483.406V154.749H475.559ZM475.559 170.263V178H467.711V170.263H475.559ZM467.711 170.263V162.603H475.559V170.263H467.711ZM467.711 154.749V146.933H475.559V154.749H467.711ZM467.711 146.933V139.078H475.559V146.933H467.711ZM467.711 139.078V131.263H475.559V139.078H467.711ZM467.711 131.263V123.408H475.559V131.263H467.711ZM467.711 123.408V115.553H475.559V123.408H467.711ZM467.711 115.553V107.894H475.559V115.553H467.711ZM460.059 107.894V100.04H467.711V107.894H460.059ZM467.711 170.263V178H460.059V170.263H467.711ZM460.059 170.263V162.603H467.711V170.263H460.059ZM460.059 154.749V146.933H467.711V154.749H460.059ZM460.059 146.933V139.078H467.711V146.933H460.059ZM460.059 139.078V131.263H467.711V139.078H460.059ZM460.059 131.263V123.408H467.711V131.263H460.059ZM460.059 123.408V115.553H467.711V123.408H460.059ZM460.059 115.553V107.894H467.711V115.553H460.059ZM452.212 107.894V100.04H460.059V107.894H452.212ZM460.059 170.263V178H452.212V170.263H460.059ZM452.212 170.263V162.603H460.059V170.263H452.212ZM444.404 107.894V100.04H452.212V107.894H444.404ZM452.212 170.263V178H444.404V170.263H452.212ZM444.404 170.263V162.603H452.212V170.263H444.404ZM436.557 107.894V100.04H444.404V107.894H436.557ZM436.557 170.263V162.603H444.404V170.263H436.557ZM436.557 162.603V154.749H444.404V162.603H436.557ZM436.557 154.749V146.933H444.404V154.749H436.557ZM436.557 146.933V139.078H444.404V146.933H436.557ZM436.557 139.078V131.263H444.404V139.078H436.557ZM436.557 131.263V123.408H444.404V131.263H436.557ZM436.557 123.408V115.553H444.404V123.408H436.557ZM436.557 115.553V107.894H444.404V115.553H436.557Z" fill="#352B52"/>
<path d="M569.413 170.263V178H561.605V170.263H569.413ZM561.605 170.263V162.603H569.413V170.263H561.605ZM561.605 162.603V154.749H569.413V162.603H561.605ZM561.605 170.263V178H553.758V170.263H561.605ZM553.758 170.263V162.603H561.605V170.263H553.758ZM553.758 162.603V154.749H561.605V162.603H553.758ZM553.758 154.749V146.933H561.605V154.749H553.758ZM553.758 170.263V178H545.95V170.263H553.758ZM545.95 170.263V162.603H553.758V170.263H545.95ZM545.95 154.749V146.933H553.758V154.749H545.95ZM545.95 170.263V178H538.102V170.263H545.95ZM538.102 170.263V162.603H545.95V170.263H538.102ZM538.102 154.749V146.933H545.95V154.749H538.102ZM538.102 170.263V178H530.255V170.263H538.102ZM530.255 170.263V162.603H538.102V170.263H530.255ZM530.255 154.749V146.933H538.102V154.749H530.255ZM530.255 146.933V139.078H538.102V146.933H530.255ZM530.255 139.078V131.263H538.102V139.078H530.255ZM530.255 131.263V123.408H538.102V131.263H530.255ZM530.255 123.408V115.553H538.102V123.408H530.255ZM530.255 115.553V107.894H538.102V115.553H530.255ZM522.603 107.894V100.04H530.255V107.894H522.603ZM530.255 170.263V178H522.603V170.263H530.255ZM522.603 170.263V162.603H530.255V170.263H522.603ZM522.603 154.749V146.933H530.255V154.749H522.603ZM522.603 146.933V139.078H530.255V146.933H522.603ZM522.603 139.078V131.263H530.255V139.078H522.603ZM522.603 131.263V123.408H530.255V131.263H522.603ZM522.603 123.408V115.553H530.255V123.408H522.603ZM522.603 115.553V107.894H530.255V115.553H522.603ZM514.756 107.894V100.04H522.603V107.894H514.756ZM522.603 170.263V178H514.756V170.263H522.603ZM514.756 170.263V162.603H522.603V170.263H514.756ZM506.948 107.894V100.04H514.756V107.894H506.948ZM514.756 170.263V178H506.948V170.263H514.756ZM506.948 170.263V162.603H514.756V170.263H506.948ZM499.1 107.894V100.04H506.948V107.894H499.1ZM499.1 170.263V162.603H506.948V170.263H499.1ZM499.1 162.603V154.749H506.948V162.603H499.1ZM499.1 154.749V146.933H506.948V154.749H499.1ZM499.1 146.933V139.078H506.948V146.933H499.1ZM499.1 139.078V131.263H506.948V139.078H499.1ZM499.1 131.263V123.408H506.948V131.263H499.1ZM499.1 123.408V115.553H506.948V123.408H499.1ZM499.1 115.553V107.894H506.948V115.553H499.1Z" fill="#352B52"/>
<path d="M639.648 170.263V178H631.957V170.263H639.648ZM631.957 170.263V162.603H639.648V170.263H631.957ZM631.957 162.603V154.749H639.648V162.603H631.957ZM631.957 154.749V146.933H639.648V154.749H631.957ZM631.957 146.933V139.078H639.648V146.933H631.957ZM631.957 139.078V131.263H639.648V139.078H631.957ZM631.957 131.263V123.408H639.648V131.263H631.957ZM631.957 123.408V115.553H639.648V123.408H631.957ZM631.957 170.263V178H624.149V170.263H631.957ZM624.149 170.263V162.603H631.957V170.263H624.149ZM624.149 162.603V154.749H631.957V162.603H624.149ZM624.149 154.749V146.933H631.957V154.749H624.149ZM624.149 146.933V139.078H631.957V146.933H624.149ZM624.149 139.078V131.263H631.957V139.078H624.149ZM624.149 131.263V123.408H631.957V131.263H624.149ZM624.149 123.408V115.553H631.957V123.408H624.149ZM624.149 115.553V107.894H631.957V115.553H624.149ZM616.302 107.894V100.04H624.149V107.894H616.302ZM624.149 170.263V178H616.302V170.263H624.149ZM616.302 170.263V162.603H624.149V170.263H616.302ZM616.302 115.553V107.894H624.149V115.553H616.302ZM608.493 107.894V100.04H616.302V107.894H608.493ZM616.302 170.263V178H608.493V170.263H616.302ZM608.493 170.263V162.603H616.302V170.263H608.493ZM600.646 107.894V100.04H608.493V107.894H600.646ZM600.646 170.263V162.603H608.493V170.263H600.646ZM600.646 162.603V154.749H608.493V162.603H600.646ZM600.646 154.749V146.933H608.493V154.749H600.646ZM600.646 139.078V131.263H608.493V139.078H600.646ZM600.646 131.263V123.408H608.493V131.263H600.646ZM600.646 123.408V115.553H608.493V123.408H600.646ZM592.799 107.894V100.04H600.646V107.894H592.799ZM600.646 170.263V178H592.799V170.263H600.646ZM592.799 170.263V162.603H600.646V170.263H592.799ZM592.799 162.603V154.749H600.646V162.603H592.799ZM592.799 154.749V146.933H600.646V154.749H592.799ZM592.799 139.078V131.263H600.646V139.078H592.799ZM592.799 131.263V123.408H600.646V131.263H592.799ZM592.799 123.408V115.553H600.646V123.408H592.799ZM585.147 107.894V100.04H592.799V107.894H585.147ZM592.799 170.263V178H585.147V170.263H592.799ZM585.147 170.263V162.603H592.799V170.263H585.147ZM585.147 162.603V154.749H592.799V162.603H585.147ZM585.147 154.749V146.933H592.799V154.749H585.147ZM585.147 139.078V131.263H592.799V139.078H585.147ZM585.147 131.263V123.408H592.799V131.263H585.147ZM585.147 123.408V115.553H592.799V123.408H585.147ZM577.3 107.894V100.04H585.147V107.894H577.3ZM585.147 170.263V178H577.3V170.263H585.147ZM577.3 170.263V162.603H585.147V170.263H577.3ZM569.491 107.894V100.04H577.3V107.894H569.491ZM577.3 170.263V178H569.491V170.263H577.3ZM569.491 170.263V162.603H577.3V170.263H569.491ZM569.491 115.553V107.894H577.3V115.553H569.491ZM561.644 170.263V162.603H569.491V170.263H561.644ZM561.644 162.603V154.749H569.491V162.603H561.644ZM561.644 154.749V146.933H569.491V154.749H561.644ZM561.644 146.933V139.078H569.491V146.933H561.644ZM561.644 139.078V131.263H569.491V139.078H561.644ZM561.644 131.263V123.408H569.491V131.263H561.644ZM561.644 123.408V115.553H569.491V123.408H561.644ZM561.644 115.553V107.894H569.491V115.553H561.644Z" fill="#352B52"/>
<path d="M702.309 170.263V162.603H710V170.263H702.309ZM702.309 162.603V154.749H710V162.603H702.309ZM702.309 154.749V146.933H710V154.749H702.309ZM702.309 146.933V139.078H710V146.933H702.309ZM702.309 139.078V131.263H710V139.078H702.309ZM702.309 131.263V123.408H710V131.263H702.309ZM702.309 123.408V115.553H710V123.408H702.309ZM702.309 170.263V178H694.501V170.263H702.309ZM694.501 170.263V162.603H702.309V170.263H694.501ZM694.501 162.603V154.749H702.309V162.603H694.501ZM694.501 154.749V146.933H702.309V154.749H694.501ZM694.501 146.933V139.078H702.309V146.933H694.501ZM694.501 139.078V131.263H702.309V139.078H694.501ZM694.501 131.263V123.408H702.309V131.263H694.501ZM694.501 123.408V115.553H702.309V123.408H694.501ZM694.501 115.553V107.894H702.309V115.553H694.501ZM686.654 107.894V100.04H694.501V107.894H686.654ZM694.501 170.263V178H686.654V170.263H694.501ZM686.654 170.263V162.603H694.501V170.263H686.654ZM686.654 162.603V154.749H694.501V162.603H686.654ZM686.654 139.078V131.263H694.501V139.078H686.654ZM686.654 115.553V107.894H694.501V115.553H686.654ZM678.845 107.894V100.04H686.654V107.894H678.845ZM686.654 170.263V178H678.845V170.263H686.654ZM678.845 170.263V162.603H686.654V170.263H678.845ZM670.998 107.894V100.04H678.845V107.894H670.998ZM678.845 170.263V178H670.998V170.263H678.845ZM670.998 170.263V162.603H678.845V170.263H670.998ZM670.998 154.749V146.933H678.845V154.749H670.998ZM670.998 146.933V139.078H678.845V146.933H670.998ZM670.998 131.263V123.408H678.845V131.263H670.998ZM670.998 123.408V115.553H678.845V123.408H670.998ZM663.151 107.894V100.04H670.998V107.894H663.151ZM670.998 170.263V178H663.151V170.263H670.998ZM663.151 170.263V162.603H670.998V170.263H663.151ZM663.151 154.749V146.933H670.998V154.749H663.151ZM663.151 146.933V139.078H670.998V146.933H663.151ZM663.151 131.263V123.408H670.998V131.263H663.151ZM663.151 123.408V115.553H670.998V123.408H663.151ZM655.499 107.894V100.04H663.151V107.894H655.499ZM663.151 170.263V178H655.499V170.263H663.151ZM655.499 170.263V162.603H663.151V170.263H655.499ZM655.499 154.749V146.933H663.151V154.749H655.499ZM655.499 146.933V139.078H663.151V146.933H655.499ZM655.499 131.263V123.408H663.151V131.263H655.499ZM655.499 123.408V115.553H663.151V123.408H655.499ZM647.651 107.894V100.04H655.499V107.894H647.651ZM655.499 170.263V178H647.651V170.263H655.499ZM647.651 170.263V162.603H655.499V170.263H647.651ZM639.843 107.894V100.04H647.651V107.894H639.843ZM647.651 170.263V178H639.843V170.263H647.651ZM639.843 170.263V162.603H647.651V170.263H639.843ZM631.996 107.894V100.04H639.843V107.894H631.996ZM631.996 170.263V162.603H639.843V170.263H631.996ZM631.996 162.603V154.749H639.843V162.603H631.996ZM631.996 154.749V146.933H639.843V154.749H631.996ZM631.996 146.933V139.078H639.843V146.933H631.996ZM631.996 139.078V131.263H639.843V139.078H631.996ZM631.996 131.263V123.408H639.843V131.263H631.996ZM631.996 123.408V115.553H639.843V123.408H631.996ZM631.996 115.553V107.894H639.843V115.553H631.996Z" fill="#352B52"/>
</svg>
